<?xml version="1.0" encoding="utf-8"?>
<!-- Generator: Adobe Illustrator 15.0.2, SVG Export Plug-In  -->
<!DOCTYPE svg PUBLIC "-//W3C//DTD SVG 1.1//EN" "http://www.w3.org/Graphics/SVG/1.1/DTD/svg11.dtd" [
	<!ENTITY ns_flows "http://ns.adobe.com/Flows/1.0/">
]>
<svg version="1.1"
	 xmlns="http://www.w3.org/2000/svg" xmlns:xlink="http://www.w3.org/1999/xlink" xmlns:a="http://ns.adobe.com/AdobeSVGViewerExtensions/3.0/"
	 x="0px" y="0px" width="100px" height="100px" viewBox="-34.9970703 -0.0830078 100 100"
	 overflow="visible" enable-background="new -34.9970703 -0.0830078 100 100" xml:space="preserve">
<defs>
</defs>
<path fill-rule="evenodd" clip-rule="evenodd" d="M30.0048828,91.4291992c0,0.4238281,0,0.8476562,0,1.2714844
	c-0.2597656,2.09375-0.4873047,4.2226562-1.6806641,5.3808594c-3.1533203,1.5136719-7.1777344,1.8144531-11.2802734,1.7929688
	c-1.8671875-0.0117188-3.8554688-0.0644531-5.8984375-0.3476562c-2.1601562-0.2988281-4.7597656-0.7636719-5.6699219-2.0253906
	c-1.7460938-2.4179688-0.8105469-6.9414062-0.8105469-10.6445312c0-11.9609375,0-24.1328125,0-35.8642578
	c0-2.0151367-0.1103516-3.9125977,0.1748047-5.6689453c0.2490234-1.5385742,0.7910156-3.0004883,1.5605469-4.3964844
	c0.7441406-1.3510742,1.7255859-2.3671875,2.3134766-3.6435547c0.6376953-1.387207,0.7675781-3.1030273,0.9257812-5.090332
	c0.2832031-3.5419922,0.4619141-7.5151367,0.9257812-10.9936523c0.2089844-1.5717773,0.5117188-3.4467773,0.7529297-5.206543
	c0.2207031-1.6157227,0.609375-3.90625,0.5205078-5.4951172c-0.0302734-0.5332031-0.4863281-0.3730469-0.5205078-0.925293
	c-0.0566406-0.8657227,0.6757812-1.7304688,0.8095703-2.71875c0.0703125-0.515625-0.2734375-1.1713867-0.1152344-1.5620117
	c0.4091797-1.0092773,3.6318359-0.8681641,5.03125-0.8681641c1.3730469,0,4.7167969-0.1445312,5.0927734,0.8110352
	c0.1152344,0.2949219-0.0605469,0.3828125-0.1191406,0.6943359c-0.2373047,1.3876953,0.9960938,2.5483398,0.8681641,3.6435547
	c-0.078125,0.7041016-0.4541016,0.246582-0.5771484,0.925293c-0.1054688,0.6035156,0.1347656,1.6054688,0.2333984,2.4301758
	c0.1005859,0.8613281,0.1875,1.7553711,0.2880859,2.4287109c0.6884766,4.6640625,1.2353516,9.6171875,1.6230469,14.578125
	c0.1367188,1.815918,0.1630859,3.484375,0.4003906,4.9746094c0.2529297,1.5825195,0.8193359,2.7436523,1.5634766,3.878418
	c1.4101562,2.1484375,2.9326172,4.4038086,3.1826172,7.6337891C29.875,49.9570312,29.65625,53.5708008,29.65625,57.1821289
	c0,9.0400391,0,17.9990234,0,27.0146484C29.65625,86.8510742,29.4912109,89.3920898,30.0048828,91.4291992z"/>
<path fill-rule="evenodd" clip-rule="evenodd" fill="#FFFAC2" d="M26.0859375,87.5092773c0,0.4257812,0,0.8515625,0,1.2714844
	c-0.2607422,2.09375-0.4863281,4.2246094-1.6796875,5.3828125c-3.1523438,1.5136719-7.1787109,1.8144531-11.2792969,1.7929688
	c-1.8671875-0.0117188-3.8554688-0.0644531-5.9003906-0.3496094c-2.1591797-0.296875-4.7597656-0.7617188-5.6699219-2.0214844
	c-1.7460938-2.4199219-0.8095703-6.9453125-0.8095703-10.6464844c0-11.9628906,0-24.1328125,0-35.8647461
	c0-2.0146484-0.1113281-3.9125977,0.1738281-5.6689453c0.25-1.5385742,0.7919922-3,1.5615234-4.3969727
	c0.7451172-1.3505859,1.7246094-2.3662109,2.3144531-3.6430664c0.6367188-1.3867188,0.7666016-3.1049805,0.9248047-5.090332
	c0.2822266-3.5419922,0.4619141-7.5151367,0.9257812-10.9926758c0.2099609-1.5732422,0.5117188-3.4467773,0.7519531-5.2070312
	c0.2207031-1.6171875,0.6103516-3.9067383,0.5214844-5.4956055c-0.03125-0.5332031-0.4863281-0.3730469-0.5214844-0.925293
	C7.34375,4.7890625,8.0761719,3.9233398,8.2099609,2.9350586C8.2792969,2.4208984,7.9365234,1.7646484,8.09375,1.3735352
	c0.4091797-1.0087891,3.6318359-0.8686523,5.0332031-0.8686523c1.3730469,0,4.7167969-0.1445312,5.0908203,0.8115234
	c0.1162109,0.2949219-0.0605469,0.3833008-0.1181641,0.6943359c-0.2373047,1.3881836,0.9941406,2.5488281,0.8681641,3.6435547
	c-0.0791016,0.7041016-0.4550781,0.246582-0.5771484,0.925293C18.2841797,7.1831055,18.5244141,8.1850586,18.625,9.0107422
	c0.0986328,0.8603516,0.1855469,1.7553711,0.2861328,2.4287109c0.6884766,4.6640625,1.2353516,9.6166992,1.6230469,14.5771484
	c0.1376953,1.8164062,0.1640625,3.4868164,0.4013672,4.9746094c0.2519531,1.5800781,0.8183594,2.7441406,1.5654297,3.8779297
	c1.4082031,2.1489258,2.9296875,4.4047852,3.1787109,7.6342773c0.2763672,3.5351562,0.0576172,7.1474609,0.0576172,10.7607422
	c0,9.0419922,0,17.9990234,0,27.0166016C25.7373047,82.9331055,25.5722656,85.4741211,26.0859375,87.5092773z"/>
<path d="M13.5175781,96.4545898l-0.3935547-0.0019531c-1.859375-0.0117188-3.8691406-0.0605469-5.9658203-0.3535156
	c-2.5371094-0.3496094-5.0205078-0.8613281-6.0039062-2.2226562c-1.4003906-1.9414062-1.2109375-5.0195312-1.0273438-7.9941406
	C0.1875,84.8959961,0.25,83.8764648,0.25,82.9389648V47.0742188c0-0.4462891-0.0058594-0.8862305-0.0107422-1.3208008
	c-0.0195312-1.5527344-0.0371094-3.0195312,0.1914062-4.4277344c0.2480469-1.5263672,0.7919922-3.059082,1.6171875-4.5571289
	c0.3496094-0.6337891,0.7431641-1.1884766,1.1230469-1.7255859c0.4482422-0.6308594,0.8701172-1.2265625,1.1748047-1.8857422
	c0.5917969-1.2885742,0.7226562-2.9375,0.8740234-4.8466797c0.0898438-1.1123047,0.1630859-2.1860352,0.2382812-3.2734375
	c0.1796875-2.6289062,0.3671875-5.347168,0.6982422-7.8208008c0.1083984-0.815918,0.2412109-1.7128906,0.3779297-2.6323242
	c0.1269531-0.8544922,0.2568359-1.7285156,0.3740234-2.5761719l0.1181641-0.8369141
	c0.2089844-1.4619141,0.4707031-3.2817383,0.3984375-4.5634766l-0.0664062-0.090332
	c-0.1474609-0.1152344-0.421875-0.3310547-0.4541016-0.831543c-0.0390625-0.5927734,0.1982422-1.140625,0.4287109-1.6704102
	c0.171875-0.3945312,0.3339844-0.7670898,0.3847656-1.1464844c0.0205078-0.1538086-0.0273438-0.3789062-0.0722656-0.5966797
	C7.5703125,1.9111328,7.4921875,1.5380859,7.6328125,1.1884766c0.4228516-1.043457,2.3505859-1.1870117,4.3691406-1.1870117
	l1.125,0.0068359l1.2128906-0.0078125c2.3388672,0,3.9716797,0.1928711,4.3408203,1.1347656
	c0.1484375,0.3793945,0.0332031,0.6450195-0.0361328,0.8037109C18.6181641,2,18.5986328,2.0439453,18.5888672,2.1000977
	c-0.1025391,0.5986328,0.1523438,1.1777344,0.4228516,1.7910156c0.2568359,0.5820312,0.5224609,1.184082,0.4501953,1.8198242
	c-0.0634766,0.5512695-0.3037109,0.7416992-0.5537109,0.8647461c0-0.0151367-0.0126953,0.0039062-0.0283203,0.0917969
	c-0.0625,0.3481445,0.0341797,0.9501953,0.1269531,1.5322266c0.0410156,0.2558594,0.0810547,0.5107422,0.1103516,0.7514648
	l0.0869141,0.7680664c0.0644531,0.5991211,0.1289062,1.1777344,0.1972656,1.6474609
	c0.6855469,4.6367188,1.2333984,9.5527344,1.6269531,14.6113281c0.0449219,0.5795898,0.078125,1.1435547,0.1083984,1.6918945
	c0.0683594,1.1577148,0.1318359,2.2514648,0.2890625,3.2436523c0.2099609,1.3144531,0.6552734,2.4160156,1.4902344,3.6826172
	l0.0966797,0.1464844c1.3632812,2.0810547,2.9091797,4.4389648,3.1621094,7.7226562
	c0.1933594,2.4726562,0.1455078,5.0185547,0.0996094,7.4804688c-0.0205078,1.1044922-0.0400391,2.2109375-0.0400391,3.3183594
	v27.0166016c0,0.5273438-0.0068359,1.0527344-0.0126953,1.5683594c-0.0263672,2.0410156-0.0498047,3.9707031,0.3447266,5.5390625
	l0.015625,0.1210938l-0.0302734,1.546875c-0.2558594,2.0761719-0.5214844,4.2226562-1.7988281,5.4628906l-0.1308594,0.0917969
	C21.2197266,96.2456055,16.8994141,96.4545898,13.5175781,96.4545898z M12.0019531,0.9946289
	c-2.9873047,0-3.3945312,0.4331055-3.4492188,0.565918c-0.0253906,0.0751953,0.03125,0.3461914,0.0654297,0.5078125
	c0.0605469,0.2861328,0.1279297,0.6103516,0.0830078,0.9335938C8.6318359,3.5170898,8.4257812,3.9916992,8.2451172,4.4106445
	c-0.1914062,0.440918-0.3730469,0.8574219-0.3496094,1.2114258l0.0751953,0.1137695
	C8.1162109,5.8500977,8.3886719,6.0625,8.4160156,6.550293c0.078125,1.3823242-0.1904297,3.2563477-0.4072266,4.7617188
	l-0.1171875,0.8300781c-0.1162109,0.8515625-0.2460938,1.7299805-0.3740234,2.5878906
	c-0.1367188,0.9145508-0.2695312,1.8061523-0.3769531,2.6176758c-0.3271484,2.4423828-0.5117188,5.1445312-0.6914062,7.7573242
	c-0.0761719,1.0913086-0.1494141,2.1689453-0.2333984,3.2089844c-0.1640625,2.0791016-0.3027344,3.809082-0.9677734,5.2583008
	c-0.34375,0.7436523-0.8125,1.4057617-1.2666016,2.0454102c-0.3652344,0.5141602-0.7412109,1.0458984-1.0644531,1.6308594
	c-0.7695312,1.3974609-1.2763672,2.8227539-1.5068359,4.2363281c-0.2138672,1.3232422-0.1962891,2.7475586-0.1777344,4.2563477
	c0.0048828,0.4384766,0.0107422,0.8828125,0.0107422,1.3330078v35.8647461c0,0.96875-0.0634766,2.0039062-0.125,3.0039062
	c-0.1728516,2.8027344-0.3505859,5.6992188,0.8417969,7.3515625c0.8701172,1.2050781,3.8847656,1.6210938,5.3339844,1.8222656
	c2.0400391,0.2832031,4.0107422,0.3320312,5.8359375,0.34375h0.3876953c3.2509766,0,7.3867188-0.1953125,10.5976562-1.7089844
	c0.9804688-1.0136719,1.2197266-2.9472656,1.4511719-4.8164062l0.0263672-0.2148438l-0.0039062-1.1503906
	c-0.4111328-1.6796875-0.3867188-3.6484375-0.3613281-5.7324219c0.0058594-0.5117188,0.0126953-1.0332031,0.0126953-1.5566406
	V53.2641602c0-1.1132812,0.0205078-2.2255859,0.0419922-3.3364258c0.0449219-2.4384766,0.0917969-4.9604492-0.0966797-7.3852539
	c-0.2353516-3.0297852-1.6425781-5.1777344-3.0048828-7.2548828l-0.0947266-0.1459961
	c-0.9169922-1.3911133-1.4072266-2.609375-1.6416016-4.0722656c-0.1650391-1.0405273-0.2294922-2.1586914-0.2988281-3.3422852
	c-0.03125-0.5424805-0.0634766-1.1000977-0.1074219-1.6728516c-0.3925781-5.034668-0.9375-9.9277344-1.6191406-14.5419922
	c-0.0703125-0.4804688-0.1357422-1.0722656-0.203125-1.6845703l-0.0849609-0.7602539
	c-0.0273438-0.2255859-0.0664062-0.4677734-0.1044922-0.7109375c-0.1064453-0.6630859-0.2158203-1.3491211-0.1240234-1.8632812
	c0.0908203-0.5053711,0.3212891-0.6865234,0.5595703-0.8051758c0.0019531-0.015625,0.0078125-0.0458984,0.0126953-0.0898438
	c0.0419922-0.3686523-0.1582031-0.8237305-0.3710938-1.3061523c-0.3037109-0.6870117-0.6464844-1.4663086-0.4931641-2.3652344
	c0.03125-0.1748047,0.0849609-0.2958984,0.1240234-0.3847656c0.0009766-0.0961914-0.265625-0.5483398-3.3945312-0.5483398
	l-1.2128906,0.0078125L12.0019531,0.9946289z"/>
<path fill="#010101" d="M15.796875,56.324707h2.65625v-3.9189453h-3.1201172v0.0117188
	c-3.7792969,0.1347656-4.5566406,2.2617188-4.6240234,4.4941406h-0.0068359v1.9550781H8.1279297v3.8417969h2.5742188V73.003418
	h3.8818359V62.7084961h3.1767578l0.6113281-3.8417969h-3.7880859v-1.1816406
	C14.5839844,56.9321289,15.0839844,56.324707,15.796875,56.324707z"/>
<path display="none" fill-rule="evenodd" clip-rule="evenodd" d="M30.0058594,91.4291992c0,0.4238281,0,0.8476562,0,1.2714844
	c-0.2597656,2.09375-0.4873047,4.2226562-1.6806641,5.3808594c-3.1533203,1.5136719-7.1777344,1.8144531-11.2802734,1.7929688
	c-1.8671875-0.0117188-3.8554688-0.0644531-5.8984375-0.3476562c-2.1601562-0.2988281-4.7597656-0.7636719-5.6699219-2.0253906
	c-1.7460938-2.4179688-0.8105469-6.9414062-0.8105469-10.6445312c0-11.9609375,0-24.1328125,0-35.8652344
	c0-2.0151367-0.1103516-3.9116211,0.1748047-5.668457c0.2490234-1.5380859,0.7910156-3.0004883,1.5605469-4.3964844
	c0.7441406-1.3510742,1.7255859-2.3671875,2.3134766-3.6435547c0.6376953-1.387207,0.7675781-3.1030273,0.9257812-5.090332
	c0.2832031-3.5419922,0.4619141-7.5151367,0.9257812-10.9936523c0.2089844-1.5717773,0.5117188-3.4467773,0.7529297-5.206543
	c0.2207031-1.6157227,0.609375-3.90625,0.5205078-5.4951172c-0.0302734-0.5332031-0.4863281-0.3730469-0.5205078-0.925293
	c-0.0566406-0.8657227,0.6757812-1.7304688,0.8095703-2.71875c0.0703125-0.515625-0.2734375-1.1713867-0.1152344-1.5620117
	c0.4091797-1.0092773,3.6318359-0.8681641,5.03125-0.8681641c1.3730469,0,4.7167969-0.1445312,5.0927734,0.8110352
	c0.1152344,0.2949219-0.0605469,0.3828125-0.1191406,0.6943359c-0.2373047,1.3876953,0.9960938,2.5483398,0.8681641,3.6435547
	c-0.078125,0.7041016-0.4541016,0.246582-0.5771484,0.925293c-0.1054688,0.6035156,0.1347656,1.6054688,0.2333984,2.4301758
	c0.1005859,0.8613281,0.1875,1.7553711,0.2880859,2.4287109c0.6884766,4.6640625,1.2353516,9.6171875,1.6230469,14.578125
	c0.1367188,1.815918,0.1630859,3.484375,0.4003906,4.9746094c0.2529297,1.5825195,0.8193359,2.7436523,1.5634766,3.878418
	c1.4101562,2.1484375,2.9326172,4.4038086,3.1826172,7.6342773c0.2753906,3.5351562,0.0566406,7.1479492,0.0566406,10.7592773
	c0,9.0410156,0,18,0,27.015625C29.6572266,86.8510742,29.4921875,89.3920898,30.0058594,91.4291992z"/>
<path display="none" fill-rule="evenodd" clip-rule="evenodd" fill="#FFFAC2" d="M26.0869141,87.5092773
	c0,0.4257812,0,0.8515625,0,1.2714844c-0.2607422,2.09375-0.4863281,4.2246094-1.6796875,5.3828125
	c-3.1523438,1.5136719-7.1787109,1.8144531-11.2792969,1.7929688c-1.8671875-0.0117188-3.8554688-0.0644531-5.9003906-0.3496094
	c-2.1591797-0.296875-4.7597656-0.7617188-5.6699219-2.0214844c-1.7460938-2.4199219-0.8095703-6.9453125-0.8095703-10.6464844
	c0-11.9628906,0-24.1328125,0-35.8647461c0-2.015625-0.1113281-3.9130859,0.1738281-5.6694336
	c0.25-1.5385742,0.7919922-3,1.5615234-4.3969727c0.7451172-1.3505859,1.7246094-2.3662109,2.3144531-3.6430664
	c0.6367188-1.3867188,0.7666016-3.1049805,0.9248047-5.090332c0.2822266-3.5419922,0.4619141-7.5151367,0.9257812-10.9926758
	c0.2099609-1.5732422,0.5117188-3.4467773,0.7519531-5.2070312c0.2207031-1.6171875,0.6103516-3.9067383,0.5214844-5.4956055
	c-0.03125-0.5332031-0.4863281-0.3730469-0.5214844-0.925293c-0.0556641-0.8652344,0.6767578-1.730957,0.8105469-2.7192383
	C8.2802734,2.4204102,7.9375,1.7641602,8.0947266,1.3730469c0.4091797-1.0087891,3.6318359-0.8686523,5.0332031-0.8686523
	c1.3730469,0,4.7167969-0.1445312,5.0908203,0.8115234c0.1162109,0.2949219-0.0605469,0.3833008-0.1181641,0.6943359
	C17.8632812,3.3984375,19.0947266,4.559082,18.96875,5.6538086c-0.0791016,0.7041016-0.4550781,0.246582-0.5771484,0.925293
	c-0.1064453,0.6035156,0.1337891,1.6054688,0.234375,2.4311523c0.0986328,0.8603516,0.1855469,1.7553711,0.2861328,2.4287109
	c0.6884766,4.6640625,1.2353516,9.6166992,1.6230469,14.5771484c0.1376953,1.8164062,0.1640625,3.4868164,0.4013672,4.9746094
	c0.2519531,1.5800781,0.8183594,2.7441406,1.5654297,3.8779297c1.4082031,2.1489258,2.9296875,4.4047852,3.1787109,7.6342773
	c0.2763672,3.5351562,0.0576172,7.1474609,0.0576172,10.7602539c0,9.0429688,0,18,0,27.0175781
	C25.7382812,82.9331055,25.5732422,85.4741211,26.0869141,87.5092773z"/>
<path display="none" d="M13.5185547,96.4545898L13.125,96.4526367c-1.859375-0.0117188-3.8691406-0.0605469-5.9658203-0.3535156
	c-2.5371094-0.3496094-5.0205078-0.8613281-6.0039062-2.2226562c-1.4003906-1.9414062-1.2109375-5.0195312-1.0273438-7.9941406
	c0.0605469-0.9863281,0.1230469-2.0058594,0.1230469-2.9433594V47.0742188c0-0.4472656-0.0058594-0.8867188-0.0107422-1.3212891
	c-0.0195312-1.5527344-0.0371094-3.0195312,0.1914062-4.4277344c0.2480469-1.5263672,0.7919922-3.059082,1.6171875-4.5571289
	c0.3496094-0.6337891,0.7431641-1.1884766,1.1230469-1.7255859c0.4482422-0.6308594,0.8701172-1.2265625,1.1748047-1.8857422
	c0.5917969-1.2885742,0.7226562-2.9375,0.8740234-4.8466797c0.0898438-1.1123047,0.1630859-2.1860352,0.2382812-3.2734375
	c0.1796875-2.6289062,0.3671875-5.347168,0.6982422-7.8208008c0.1083984-0.815918,0.2412109-1.7128906,0.3779297-2.6323242
	c0.1269531-0.8544922,0.2568359-1.7285156,0.3740234-2.5761719l0.1181641-0.8369141
	c0.2089844-1.4619141,0.4707031-3.2817383,0.3984375-4.5634766L7.359375,6.5166016
	C7.2119141,6.4013672,6.9375,6.1855469,6.9052734,5.6850586c-0.0390625-0.5927734,0.1982422-1.140625,0.4287109-1.6704102
	C7.5058594,3.6201172,7.6679688,3.2475586,7.71875,2.8681641c0.0205078-0.1538086-0.0273438-0.3789062-0.0722656-0.5966797
	C7.5712891,1.9106445,7.4931641,1.5375977,7.6337891,1.1879883c0.4228516-1.043457,2.3505859-1.1870117,4.3691406-1.1870117
	l1.125,0.0068359L14.3408203,0c2.3388672,0,3.9716797,0.1928711,4.3408203,1.1347656
	c0.1484375,0.3793945,0.0332031,0.6450195-0.0361328,0.8037109c-0.0263672,0.0610352-0.0458984,0.1049805-0.0556641,0.1611328
	c-0.1025391,0.5986328,0.1523438,1.1777344,0.4228516,1.7910156c0.2568359,0.5820312,0.5224609,1.184082,0.4501953,1.8198242
	c-0.0634766,0.5512695-0.3037109,0.7416992-0.5537109,0.8647461c0-0.0151367-0.0126953,0.0039062-0.0283203,0.0917969
	c-0.0625,0.3481445,0.0341797,0.9501953,0.1269531,1.5322266c0.0410156,0.2558594,0.0810547,0.5107422,0.1103516,0.7514648
	L19.2050781,9.71875c0.0644531,0.5991211,0.1289062,1.1777344,0.1972656,1.6474609
	c0.6855469,4.6367188,1.2333984,9.5527344,1.6269531,14.6113281c0.0449219,0.5795898,0.078125,1.1435547,0.1083984,1.6918945
	c0.0683594,1.1577148,0.1318359,2.2514648,0.2890625,3.2436523c0.2099609,1.3144531,0.6552734,2.4160156,1.4902344,3.6826172
	l0.0966797,0.1464844c1.3632812,2.0810547,2.9091797,4.4389648,3.1621094,7.7226562
	c0.1933594,2.4726562,0.1455078,5.0185547,0.0996094,7.4804688c-0.0205078,1.1049805-0.0400391,2.2104492-0.0400391,3.3178711
	v27.0175781c0,0.5273438-0.0068359,1.0527344-0.0126953,1.5683594c-0.0263672,2.0410156-0.0498047,3.9707031,0.3447266,5.5390625
	l0.015625,0.1210938l-0.0302734,1.546875c-0.2558594,2.0761719-0.5214844,4.2226562-1.7988281,5.4628906l-0.1308594,0.0917969
	C21.2207031,96.2456055,16.9003906,96.4545898,13.5185547,96.4545898z M12.0029297,0.9941406
	c-2.9873047,0-3.3945312,0.4331055-3.4492188,0.565918C8.5283203,1.6352539,8.5849609,1.90625,8.6191406,2.0678711
	c0.0605469,0.2861328,0.1279297,0.6103516,0.0830078,0.9335938C8.6328125,3.5166016,8.4267578,3.9912109,8.2460938,4.4101562
	C8.0546875,4.8510742,7.8730469,5.2675781,7.8964844,5.621582l0.0751953,0.1137695
	c0.1455078,0.1142578,0.4179688,0.3266602,0.4453125,0.8144531c0.078125,1.3823242-0.1904297,3.2563477-0.4072266,4.7617188
	l-0.1171875,0.8300781c-0.1162109,0.8515625-0.2460938,1.7299805-0.3740234,2.5878906
	c-0.1367188,0.9145508-0.2695312,1.8061523-0.3769531,2.6176758c-0.3271484,2.4423828-0.5117188,5.1445312-0.6914062,7.7573242
	c-0.0761719,1.0913086-0.1494141,2.1689453-0.2333984,3.2089844c-0.1640625,2.0791016-0.3027344,3.809082-0.9677734,5.2583008
	c-0.34375,0.7436523-0.8125,1.4057617-1.2666016,2.0454102c-0.3652344,0.5141602-0.7412109,1.0458984-1.0644531,1.6308594
	c-0.7695312,1.3974609-1.2763672,2.8227539-1.5068359,4.2363281c-0.2138672,1.3232422-0.1962891,2.7480469-0.1777344,4.2558594
	c0.0048828,0.4394531,0.0107422,0.8828125,0.0107422,1.3339844v35.8647461c0,0.96875-0.0634766,2.0039062-0.125,3.0039062
	c-0.1728516,2.8027344-0.3505859,5.6992188,0.8417969,7.3515625c0.8701172,1.2050781,3.8847656,1.6210938,5.3339844,1.8222656
	c2.0400391,0.2832031,4.0107422,0.3320312,5.8359375,0.34375h0.3876953c3.2509766,0,7.3867188-0.1953125,10.5976562-1.7089844
	c0.9804688-1.0136719,1.2197266-2.9472656,1.4511719-4.8164062l0.0263672-0.2148438l-0.0039062-1.1503906
	c-0.4111328-1.6796875-0.3867188-3.6484375-0.3613281-5.7324219c0.0058594-0.5117188,0.0126953-1.0332031,0.0126953-1.5566406
	V53.2631836c0-1.1132812,0.0205078-2.2246094,0.0419922-3.3354492c0.0449219-2.4394531,0.0917969-4.9609375-0.0966797-7.3857422
	c-0.2353516-3.0297852-1.6425781-5.1777344-3.0048828-7.2548828l-0.0947266-0.1459961
	c-0.9169922-1.3911133-1.4072266-2.609375-1.6416016-4.0722656c-0.1650391-1.0405273-0.2294922-2.1586914-0.2988281-3.3422852
	c-0.03125-0.5424805-0.0634766-1.1000977-0.1074219-1.6728516c-0.3925781-5.034668-0.9375-9.9277344-1.6191406-14.5419922
	c-0.0703125-0.4804688-0.1357422-1.0722656-0.203125-1.6845703l-0.0849609-0.7602539
	c-0.0273438-0.2255859-0.0664062-0.4677734-0.1044922-0.7109375c-0.1064453-0.6630859-0.2158203-1.3491211-0.1240234-1.8632812
	c0.0908203-0.5053711,0.3212891-0.6865234,0.5595703-0.8051758c0.0019531-0.015625,0.0078125-0.0458984,0.0126953-0.0898438
	c0.0419922-0.3686523-0.1582031-0.8237305-0.3710938-1.3061523c-0.3037109-0.6870117-0.6464844-1.4663086-0.4931641-2.3652344
	c0.03125-0.1748047,0.0849609-0.2958984,0.1240234-0.3847656c0.0009766-0.0961914-0.265625-0.5483398-3.3945312-0.5483398
	l-1.2128906,0.0078125L12.0029297,0.9941406z"/>
<path display="none" fill="#010101" d="M22.3759766,58.0981445c-0.3056641,0.1679688-1.2236328,0.5048828-2.0800781,0.5898438
	c0.5488281-0.296875,1.3613281-1.265625,1.5625-2.0361328c-0.5273438,0.3369141-1.7402344,0.828125-2.3388672,0.828125
	c0,0,0,0.0009766,0.0009766,0.0019531c-0.6826172-0.7138672-1.6425781-1.1582031-2.7099609-1.1582031
	c-2.0683594,0-3.7470703,1.6777344-3.7470703,3.7480469c0,0.2871094,0.0341797,0.5664062,0.0957031,0.8349609h-0.0009766
	c-2.8076172-0.0722656-6.0898438-1.4794922-7.9394531-3.8876953c-1.1347656,1.9667969-0.1523438,4.1533203,1.1367188,4.9501953
	c-0.4404297,0.0351562-1.2539062-0.0498047-1.6367188-0.421875c-0.0263672,1.3046875,0.6025391,3.0351562,2.890625,3.6611328
	c-0.4414062,0.2382812-1.2197266,0.1708984-1.5595703,0.1191406c0.1191406,1.1025391,1.6630859,2.5449219,3.3496094,2.5449219
	c-0.6005859,0.6933594-2.6523438,1.9570312-5.1904297,1.5546875c1.7246094,1.0498047,3.734375,1.6572266,5.8623047,1.6572266
	c6.046875,0,10.7421875-4.9003906,10.4892578-10.9453125c0-0.0068359-0.0019531-0.0146484-0.0019531-0.0195312
	c0-0.0175781,0.0019531-0.0341797,0.0019531-0.0478516c0-0.0195312-0.0019531-0.0371094-0.0019531-0.0566406
	C21.1083984,59.6401367,21.8476562,58.9750977,22.3759766,58.0981445z"/>
<path display="none" fill-rule="evenodd" clip-rule="evenodd" d="M30.0048828,91.4291992c0,0.4238281,0,0.8486328,0,1.2714844
	c-0.2597656,2.09375-0.4873047,4.2226562-1.6796875,5.3818359c-3.1542969,1.5136719-7.1777344,1.8134766-11.2802734,1.7929688
	c-1.8671875-0.0117188-3.8564453-0.0654297-5.8994141-0.3486328c-2.1591797-0.2988281-4.7597656-0.7626953-5.6699219-2.0244141
	c-1.7460938-2.4179688-0.8105469-6.9423828-0.8105469-10.6445312c0-11.9619141,0-24.1337891,0-35.8652344
	c0-2.015625-0.1113281-3.9121094,0.1748047-5.6689453c0.2490234-1.5385742,0.7919922-3.0004883,1.5615234-4.3964844
	c0.7441406-1.3510742,1.7246094-2.3671875,2.3134766-3.6435547c0.6367188-1.387207,0.7666016-3.1030273,0.9248047-5.090332
	c0.2832031-3.5419922,0.4619141-7.5151367,0.9257812-10.9936523c0.2099609-1.5717773,0.5117188-3.4467773,0.7539062-5.206543
	c0.2207031-1.6157227,0.609375-3.90625,0.5195312-5.4951172c-0.0302734-0.5332031-0.4863281-0.3730469-0.5195312-0.925293
	c-0.0566406-0.8657227,0.6748047-1.7304688,0.8085938-2.71875c0.0703125-0.515625-0.2734375-1.1713867-0.1152344-1.5620117
	c0.4101562-1.0092773,3.6308594-0.8681641,5.0322266-0.8681641c1.3720703,0,4.7158203-0.1445312,5.0917969,0.8110352
	c0.1152344,0.2949219-0.0605469,0.3828125-0.1181641,0.6943359c-0.2382812,1.3876953,0.9951172,2.5483398,0.8681641,3.6435547
	c-0.0791016,0.7041016-0.4550781,0.246582-0.5771484,0.925293c-0.1064453,0.6035156,0.1337891,1.6054688,0.2324219,2.4301758
	c0.1005859,0.8613281,0.1875,1.7553711,0.2880859,2.4287109c0.6884766,4.6640625,1.2363281,9.6171875,1.6230469,14.578125
	c0.1367188,1.815918,0.1630859,3.484375,0.4003906,4.9746094c0.2539062,1.5825195,0.8203125,2.7436523,1.5644531,3.878418
	c1.4091797,2.1484375,2.9326172,4.4038086,3.1816406,7.6342773C29.875,49.9575195,29.65625,53.5708008,29.65625,57.1821289
	c0,9.0400391,0,17.9990234,0,27.015625C29.65625,86.8520508,29.4921875,89.3930664,30.0048828,91.4291992z"/>
<path display="none" fill-rule="evenodd" clip-rule="evenodd" fill="#FFFAC2" d="M26.0859375,87.5102539
	c0,0.4248047,0,0.8505859,0,1.2714844c-0.2597656,2.09375-0.4863281,4.2236328-1.6796875,5.3818359
	c-3.1523438,1.5146484-7.1787109,1.8154297-11.2783203,1.7939453c-1.8691406-0.0117188-3.8574219-0.0654297-5.9013672-0.3496094
	c-2.1591797-0.2978516-4.7587891-0.7626953-5.6689453-2.0224609c-1.7460938-2.4189453-0.8105469-6.9443359-0.8105469-10.6464844
	c0-11.9619141,0-24.1318359,0-35.8642578c0-2.015625-0.1113281-3.9130859,0.1738281-5.6694336
	c0.25-1.5385742,0.7929688-3,1.5605469-4.3969727c0.7460938-1.3505859,1.7265625-2.3662109,2.3154297-3.6430664
	c0.6367188-1.3867188,0.7666016-3.1049805,0.9248047-5.090332c0.2832031-3.5419922,0.4619141-7.5151367,0.9257812-10.9926758
	c0.2099609-1.5732422,0.5117188-3.4467773,0.7519531-5.2070312c0.2207031-1.6171875,0.6113281-3.9067383,0.5214844-5.4956055
	c-0.03125-0.5332031-0.4863281-0.3730469-0.5214844-0.925293C7.34375,4.7890625,8.0751953,3.9233398,8.2099609,2.9350586
	c0.0693359-0.5141602-0.2734375-1.1704102-0.1152344-1.5615234c0.4082031-1.0087891,3.6308594-0.8686523,5.0332031-0.8686523
	c1.3720703,0,4.7158203-0.1445312,5.0908203,0.8115234c0.1152344,0.2949219-0.0615234,0.3833008-0.1191406,0.6943359
	c-0.2373047,1.3881836,0.9951172,2.5488281,0.8691406,3.6435547c-0.0800781,0.7041016-0.4550781,0.246582-0.578125,0.925293
	C18.2841797,7.1831055,18.5253906,8.1850586,18.625,9.0107422c0.0986328,0.8603516,0.1865234,1.7553711,0.2861328,2.4287109
	c0.6884766,4.6640625,1.2353516,9.6166992,1.6230469,14.5771484c0.1376953,1.8164062,0.1650391,3.4868164,0.4013672,4.9746094
	c0.2519531,1.5800781,0.8183594,2.7441406,1.5654297,3.8779297c1.4082031,2.1489258,2.9296875,4.4047852,3.1796875,7.6342773
	c0.2753906,3.5351562,0.0566406,7.1474609,0.0566406,10.7607422c0,9.0419922,0,17.9990234,0,27.0166016
	C25.7373047,82.934082,25.5722656,85.4741211,26.0859375,87.5102539z"/>
<path display="none" d="M13.5185547,96.4545898L13.125,96.4536133c-1.8603516-0.0117188-3.8701172-0.0615234-5.9677734-0.3535156
	c-2.5361328-0.3505859-5.0195312-0.8613281-6.0019531-2.2236328c-1.4003906-1.9414062-1.2109375-5.0185547-1.0273438-7.9941406
	c0.0605469-0.9863281,0.1230469-2.0058594,0.1230469-2.9433594V47.074707c0-0.4472656-0.0058594-0.8867188-0.0117188-1.3212891
	c-0.0195312-1.5527344-0.0371094-3.0195312,0.1914062-4.4277344c0.2480469-1.5258789,0.7919922-3.0585938,1.6162109-4.5571289
	c0.3505859-0.6337891,0.7431641-1.1879883,1.1240234-1.7246094c0.4472656-0.6308594,0.8710938-1.2270508,1.1748047-1.8867188
	c0.5917969-1.2885742,0.7236328-2.9375,0.875-4.8466797c0.0888672-1.1176758,0.1630859-2.1972656,0.2392578-3.2905273
	c0.1796875-2.6230469,0.3662109-5.3349609,0.6953125-7.8032227c0.109375-0.815918,0.2421875-1.7119141,0.3789062-2.6313477
	c0.1269531-0.8549805,0.2578125-1.7294922,0.3730469-2.5776367l0.1171875-0.8276367
	C7.2353516,9.715332,7.4970703,7.8920898,7.4248047,6.6074219L7.3583984,6.5175781
	c-0.1474609-0.1157227-0.4228516-0.331543-0.4541016-0.8320312C6.8662109,5.0922852,7.1035156,4.5444336,7.3330078,4.0146484
	c0.171875-0.3945312,0.3339844-0.7670898,0.3847656-1.1464844c0.0214844-0.1523438-0.0263672-0.3774414-0.0722656-0.5947266
	C7.5703125,1.9116211,7.4921875,1.5375977,7.6337891,1.1875c0.4228516-1.0424805,2.3496094-1.1860352,4.3681641-1.1860352
	l1.1259766,0.0068359l1.2128906-0.0078125c2.3378906,0,3.9707031,0.1928711,4.3398438,1.1347656
	c0.1484375,0.3793945,0.0332031,0.6450195-0.0351562,0.8037109C18.6181641,2,18.5986328,2.0439453,18.5888672,2.1000977
	c-0.1025391,0.5986328,0.1523438,1.1777344,0.4228516,1.7910156c0.2568359,0.5820312,0.5234375,1.184082,0.4501953,1.8198242
	c-0.0625,0.5512695-0.3037109,0.7416992-0.5537109,0.8647461c0.0009766-0.0151367-0.0126953,0.0039062-0.0283203,0.0917969
	c-0.0615234,0.3481445,0.0341797,0.9501953,0.1269531,1.5322266c0.0410156,0.2558594,0.0820312,0.5107422,0.1113281,0.7514648
	l0.0859375,0.7680664c0.0644531,0.5991211,0.1289062,1.1777344,0.1982422,1.6474609
	c0.6845703,4.6367188,1.2324219,9.5532227,1.6259766,14.6113281c0.0449219,0.5795898,0.078125,1.1435547,0.109375,1.6918945
	c0.0673828,1.1577148,0.1308594,2.2514648,0.2890625,3.2436523c0.2089844,1.3144531,0.6542969,2.4160156,1.4902344,3.6826172
	l0.0957031,0.1464844c1.3642578,2.0810547,2.9091797,4.4389648,3.1621094,7.7226562
	c0.1933594,2.4726562,0.1455078,5.0185547,0.1005859,7.4804688c-0.0205078,1.1044922-0.0410156,2.2109375-0.0410156,3.3183594
	v27.0166016c0,0.5283203-0.0068359,1.0527344-0.0126953,1.5693359c-0.0263672,2.0410156-0.0498047,3.9697266,0.3457031,5.5380859
	l0.0146484,0.1220703l-0.0292969,1.5458984c-0.2568359,2.0761719-0.5224609,4.2226562-1.7998047,5.4638672l-0.1308594,0.0917969
	C21.2197266,96.2456055,16.9003906,96.4545898,13.5185547,96.4545898z M12.0019531,0.9946289
	c-2.9863281,0-3.3935547,0.4331055-3.4482422,0.565918c-0.0253906,0.0766602,0.03125,0.347168,0.0644531,0.5092773
	c0.0605469,0.2856445,0.1269531,0.609375,0.0839844,0.9316406c-0.0703125,0.515625-0.2753906,0.9897461-0.4570312,1.4086914
	c-0.1914062,0.440918-0.3730469,0.8574219-0.3496094,1.2119141l0.0761719,0.1137695
	C8.1171875,5.8496094,8.3896484,6.0625,8.4169922,6.5507812c0.078125,1.3847656-0.1914062,3.262207-0.4082031,4.7705078
	l-0.1171875,0.8208008c-0.1162109,0.8520508-0.2460938,1.730957-0.375,2.5898438
	c-0.1367188,0.9135742-0.2685547,1.8046875-0.3769531,2.6157227c-0.3251953,2.4370117-0.5097656,5.1333008-0.6894531,7.7402344
	c-0.0761719,1.097168-0.1503906,2.1801758-0.2333984,3.2265625c-0.1650391,2.0786133-0.3037109,3.8085938-0.9677734,5.2578125
	c-0.34375,0.7441406-0.8134766,1.40625-1.2675781,2.0463867c-0.3652344,0.5141602-0.7421875,1.0454102-1.0644531,1.6298828
	c-0.7695312,1.3979492-1.2753906,2.8232422-1.5058594,4.2363281c-0.2148438,1.3232422-0.1972656,2.7480469-0.1787109,4.2558594
	c0.0058594,0.4394531,0.0107422,0.8828125,0.0107422,1.3339844v35.8642578c0,0.96875-0.0625,2.0029297-0.125,3.0039062
	c-0.171875,2.8017578-0.3496094,5.6992188,0.8417969,7.3515625c0.8710938,1.2060547,3.8847656,1.6220703,5.3339844,1.8222656
	c2.0400391,0.2832031,4.0107422,0.3320312,5.8359375,0.34375l0.3886719,0.0009766
	c3.2509766,0,7.3857422-0.1953125,10.5966797-1.7089844c0.9814453-1.0136719,1.2197266-2.9472656,1.4511719-4.8173828
	l0.0263672-0.2148438l-0.0039062-1.1494141c-0.4111328-1.6806641-0.3867188-3.6494141-0.3603516-5.7333984
	c0.0058594-0.5117188,0.0126953-1.0322266,0.0126953-1.5566406V53.2641602c0-1.1132812,0.0205078-2.2255859,0.0410156-3.3359375
	c0.0449219-2.4394531,0.0917969-4.9609375-0.0966797-7.3857422c-0.234375-3.0297852-1.6425781-5.1777344-3.0039062-7.2548828
	l-0.0957031-0.1459961c-0.9169922-1.3911133-1.4072266-2.609375-1.6416016-4.0722656
	c-0.1640625-1.0405273-0.2294922-2.1586914-0.2988281-3.3422852c-0.0302734-0.5424805-0.0634766-1.1000977-0.1074219-1.6728516
	c-0.3925781-5.034668-0.9365234-9.9277344-1.6191406-14.5419922c-0.0703125-0.4804688-0.1357422-1.0722656-0.2021484-1.684082
	l-0.0859375-0.7607422c-0.0273438-0.2255859-0.0654297-0.4677734-0.1044922-0.7109375
	c-0.1054688-0.6630859-0.2158203-1.3491211-0.1240234-1.8632812c0.0908203-0.5053711,0.3222656-0.6865234,0.5595703-0.8051758
	c0.0019531-0.015625,0.0078125-0.0458984,0.0126953-0.0898438c0.0429688-0.3686523-0.1582031-0.8237305-0.3710938-1.3061523
	c-0.3027344-0.6870117-0.6464844-1.4663086-0.4931641-2.3652344c0.0322266-0.1748047,0.0849609-0.2958984,0.1240234-0.3847656
	c0.0009766-0.0961914-0.265625-0.5483398-3.3935547-0.5483398l-1.2128906,0.0078125L12.0019531,0.9946289z"/>
<path display="none" fill="#010101" d="M14.3466797,64.815918c-1.7402344-1.2402344-2.3896484-1.8261719-1.2763672-2.8085938
	c1.1142578-0.9833984,1.9960938-1.7773438,1.9960938-3.6044922c0-1.8251953-1.5087891-2.7587891-1.5087891-2.7587891
	s1.0908203,0.1621094,1.671875-0.1660156c0.5791016-0.3261719,0.8339844-0.5371094,0.8339844-0.5371094H10.515625
	c-1.1113281,0-4.2001953,1.2626953-4.2001953,4.2109375c0,2.9501953,3.2021484,3.5820312,4.3652344,3.5341797
	c-0.6523438,0.7958984-0.0947266,1.5205078,0.2539062,1.8945312s0.2783203,0.4912109-0.1386719,0.4912109
	c-0.4179688,0-5.5712891,0.0556641-5.5712891,3.7451172c0,3.6904297,6.8466797,3.9560547,9.0986328,1.96875
	C16.5751953,68.7963867,16.0869141,66.0541992,14.3466797,64.815918z M11.0507812,61.9604492
	c-2.7626953,0-4.0175781-6.4570312-0.765625-6.4570312C12.8144531,55.4086914,14.7167969,61.9604492,11.0507812,61.9604492z
	 M10.7226562,70.9926758c-2.2958984,0-3.5263672-1.1455078-3.5263672-2.8535156c0-1.7099609,1.671875-2.5517578,4.8056641-2.5517578
	c0.8496094,0.6542969,2.3671875,1.4492188,2.3671875,3.0429688C14.3691406,70.222168,13.0185547,70.9926758,10.7226562,70.9926758z
	 M19.1396484,57.0834961v-2.0996094h-1.0849609v2.0996094h-2.1230469v1.0898438h2.1230469v2.1025391h1.0849609v-2.1025391h2.0869141
	v-1.0898438H19.1396484z"/>
</svg>
