<?xml version="1.0" encoding="utf-8"?>
<!-- Generator: Adobe Illustrator 15.0.2, SVG Export Plug-In  -->
<!DOCTYPE svg PUBLIC "-//W3C//DTD SVG 1.1//EN" "http://www.w3.org/Graphics/SVG/1.1/DTD/svg11.dtd" [
	<!ENTITY ns_flows "http://ns.adobe.com/Flows/1.0/">
]>
<svg version="1.1"
	 xmlns="http://www.w3.org/2000/svg" xmlns:xlink="http://www.w3.org/1999/xlink" xmlns:a="http://ns.adobe.com/AdobeSVGViewerExtensions/3.0/"
	 x="0px" y="0px" width="66px" height="66px" viewBox="-0.2929688 -0.1450195 66 66"
	 overflow="visible" enable-background="new -0.2929688 -0.1450195 66 66" xml:space="preserve">
<defs>
</defs>
<path fill="none" stroke="#A7A9AC" stroke-width="0.5" stroke-miterlimit="10" d="M41.3481445,27.7197266v-1.9467773
	c0-2.1694336-1.722168-3.894043-3.8945312-3.894043h-7.7861328c-2.1689453,0-3.8935547,1.7246094-3.8935547,3.894043V41.347168
	c0,2.168457,1.7246094,3.8925781,3.8935547,3.8925781h7.7861328c2.1723633,0,3.8945312-1.7241211,3.8945312-3.8925781v-1.5576172
	h-7.7875977v-7.7871094h15.5727539v9.3447266c0,6.4511719-5.2260742,11.6806641-11.6796875,11.6806641h-7.7861328
	c-6.4516602,0-11.6801758-5.2294922-11.6801758-11.6806641V25.7729492c0-6.4521484,5.2285156-11.6811523,11.6801758-11.6811523
	h7.7861328c6.4536133,0,11.6796875,5.2290039,11.6796875,11.6811523v1.9467773H41.3481445z M44.6845703,24.2158203h0.7817383
	c-0.7270508-3.7822266-4.0615234-6.6196289-8.0126953-6.6196289h-7.7861328c-4.5053711,0-8.1767578,3.671875-8.1767578,8.1767578
	V41.347168c0,4.5043945,3.6713867,8.1762695,8.1767578,8.1762695h7.7861328c4.5073242,0,8.1772461-3.671875,8.1772461-8.1762695
	v-5.840332H37.065918v0.777832h7.7875977v5.0625c0,4.0620117-3.3383789,7.3979492-7.3999023,7.3979492h-7.7861328
	c-4.0605469,0-7.3984375-3.3359375-7.3984375-7.3979492V25.7729492c0-4.0605469,3.3378906-7.3979492,7.3984375-7.3979492h7.7861328
	C41.015625,18.375,43.9619141,20.878418,44.6845703,24.2158203z"/>
<path d="M41.3481445,27.7197266v-1.9467773c0-2.1694336-1.722168-3.894043-3.8945312-3.894043h-7.7861328
	c-2.1689453,0-3.8935547,1.7246094-3.8935547,3.894043V41.347168c0,2.168457,1.7246094,3.8925781,3.8935547,3.8925781h7.7861328
	c2.1723633,0,3.8945312-1.7241211,3.8945312-3.8925781v-1.5576172h-7.7875977v-7.7871094h15.5727539v9.3447266
	c0,6.4511719-5.2260742,11.6806641-11.6796875,11.6806641h-7.7861328c-6.4516602,0-11.6801758-5.2294922-11.6801758-11.6806641
	V25.7729492c0-6.4521484,5.2285156-11.6811523,11.6801758-11.6811523h7.7861328
	c6.4536133,0,11.6796875,5.2290039,11.6796875,11.6811523v1.9467773H41.3481445z M44.6845703,24.2158203h0.7817383
	c-0.7270508-3.7822266-4.0615234-6.6196289-8.0126953-6.6196289h-7.7861328c-4.5053711,0-8.1767578,3.671875-8.1767578,8.1767578
	V41.347168c0,4.5043945,3.6713867,8.1762695,8.1767578,8.1762695h7.7861328c4.5073242,0,8.1772461-3.671875,8.1772461-8.1762695
	v-5.840332H37.065918v0.777832h7.7875977v5.0625c0,4.0620117-3.3383789,7.3979492-7.3999023,7.3979492h-7.7861328
	c-4.0605469,0-7.3984375-3.3359375-7.3984375-7.3979492V25.7729492c0-4.0605469,3.3378906-7.3979492,7.3984375-7.3979492h7.7861328
	C41.015625,18.375,43.9619141,20.878418,44.6845703,24.2158203z"/>
<path fill="none" stroke="#A7A9AC" stroke-miterlimit="10" d="M11.4287109,54.5961914
	c5.6040039,6.3256836,13.7822266,10.3168945,22.8974609,10.3168945c16.8920898,0,30.5878906-13.6943359,30.5878906-30.5883789
	c0-9.1137695-3.9912109-17.2915039-10.315918-22.8955078l0,0"/>
<path fill="none" stroke="#A7A9AC" stroke-width="0.5" stroke-miterlimit="10" d="M39.3852539,25.7563477v-1.9462891
	c0-2.1699219-1.7226562-3.894043-3.8950195-3.894043h-7.7861328c-2.168457,0-3.8930664,1.7241211-3.8930664,3.894043v15.5742188
	c0,2.168457,1.7246094,3.8920898,3.8930664,3.8920898h7.7861328c2.1723633,0,3.8950195-1.7236328,3.8950195-3.8920898v-1.5581055
	h-7.7875977v-7.7866211h15.5727539v9.3447266c0,6.4506836-5.2260742,11.6806641-11.6801758,11.6806641h-7.7861328
	c-6.4511719,0-11.6801758-5.2299805-11.6801758-11.6806641V23.8100586c0-6.4521484,5.2290039-11.6811523,11.6801758-11.6811523
	h7.7861328c6.4541016,0,11.6801758,5.2290039,11.6801758,11.6811523v1.9462891H39.3852539z M42.7216797,22.2524414h0.78125
	c-0.7265625-3.7817383-4.0610352-6.6191406-8.0126953-6.6191406h-7.7861328c-4.5048828,0-8.1767578,3.6713867-8.1767578,8.1767578
	v15.5742188c0,4.5043945,3.671875,8.1762695,8.1767578,8.1762695h7.7861328c4.5073242,0,8.1777344-3.671875,8.1777344-8.1762695
	v-5.840332h-8.5649414v0.7773438h7.7875977v5.0629883c0,4.0615234-3.3388672,7.3974609-7.4003906,7.3974609h-7.7861328
	c-4.0600586,0-7.3979492-3.3359375-7.3979492-7.3974609V23.8100586c0-4.0610352,3.3378906-7.3979492,7.3979492-7.3979492h7.7861328
	C39.0522461,16.4121094,41.9990234,18.9155273,42.7216797,22.2524414z"/>
<path fill="none" stroke="#A7A9AC" stroke-width="0.5" stroke-miterlimit="10" d="M35.4902344,51.5556641h-7.7861328
	c-6.7109375,0-12.1708984-5.4599609-12.1708984-12.1713867V23.8100586c0-6.7119141,5.4599609-12.171875,12.1708984-12.171875
	h7.7861328c6.7109375,0,12.1708984,5.4599609,12.1708984,12.171875v2.4370117h-8.7666016v-2.4370117
	c0-1.9082031-1.4956055-3.4033203-3.4042969-3.4033203h-7.7861328c-1.9077148,0-3.4023438,1.4951172-3.4023438,3.4033203v15.5742188
	c0,1.9072266,1.4946289,3.4013672,3.4023438,3.4013672h7.7861328c1.9086914,0,3.4042969-1.4941406,3.4042969-3.4013672v-1.0668945
	h-7.7875977v-8.769043h16.5541992v9.8359375C47.6611328,46.0957031,42.2011719,51.5556641,35.4902344,51.5556641z
	 M27.7041016,12.6196289c-6.1699219,0-11.1894531,5.0200195-11.1894531,11.1904297v15.5742188
	c0,6.1699219,5.0195312,11.1899414,11.1894531,11.1899414h7.7861328c6.1699219,0,11.1894531-5.0200195,11.1894531-11.1899414
	v-8.8540039H32.0883789v6.8051758h7.7875977v2.0488281c0,2.4580078-1.9262695,4.3828125-4.3857422,4.3828125h-7.7861328
	c-2.4580078,0-4.3837891-1.9248047-4.3837891-4.3828125V23.8100586c0-2.4584961,1.9257812-4.3847656,4.3837891-4.3847656h7.7861328
	c2.4594727,0,4.3857422,1.9262695,4.3857422,4.3847656v1.4555664h6.8037109v-1.4555664
	c0-6.1704102-5.0195312-11.1904297-11.1894531-11.1904297H27.7041016z M35.4902344,48.0512695h-7.7861328
	c-4.7792969,0-8.6674805-3.8876953-8.6674805-8.6669922V23.8100586c0-4.7792969,3.8881836-8.6674805,8.6674805-8.6674805h7.7861328
	c4.1411133,0,7.7138672,2.9511719,8.4946289,7.0175781l0.1118164,0.5830078h-1.7705078l-0.0844727-0.3867188
	c-0.6948242-3.2109375-3.4711914-5.4536133-6.7514648-5.4536133h-7.7861328c-3.8085938,0-6.9072266,3.0986328-6.9072266,6.9072266
	v15.5742188c0,3.8085938,3.0986328,6.9067383,6.9072266,6.9067383h7.7861328c3.8100586,0,6.909668-3.0981445,6.909668-6.9067383
	v-4.5722656h-7.7875977v-1.7587891h9.5463867v6.3310547C44.1586914,44.1635742,40.2700195,48.0512695,35.4902344,48.0512695z"/>
<path fill="#FFFAC2" d="M39.3852539,25.7563477v-1.9462891c0-2.1699219-1.7226562-3.894043-3.8950195-3.894043h-7.7861328
	c-2.168457,0-3.8930664,1.7241211-3.8930664,3.894043v15.5742188c0,2.168457,1.7246094,3.8920898,3.8930664,3.8920898h7.7861328
	c2.1723633,0,3.8950195-1.7236328,3.8950195-3.8920898v-1.5581055h-7.7875977v-7.7866211h15.5727539v9.3447266
	c0,6.4506836-5.2260742,11.6806641-11.6801758,11.6806641h-7.7861328c-6.4511719,0-11.6801758-5.2299805-11.6801758-11.6806641
	V23.8100586c0-6.4521484,5.2290039-11.6811523,11.6801758-11.6811523h7.7861328
	c6.4541016,0,11.6801758,5.2290039,11.6801758,11.6811523v1.9462891H39.3852539z"/>
<path d="M35.4902344,51.5556641h-7.7861328c-6.7109375,0-12.1708984-5.4599609-12.1708984-12.1713867V23.8100586
	c0-6.7119141,5.4599609-12.171875,12.1708984-12.171875h7.7861328c6.7109375,0,12.1708984,5.4599609,12.1708984,12.171875v2.4370117
	h-8.7666016v-2.4370117c0-1.9082031-1.4956055-3.4033203-3.4042969-3.4033203h-7.7861328
	c-1.9077148,0-3.4023438,1.4951172-3.4023438,3.4033203v15.5742188c0,1.9072266,1.4946289,3.4013672,3.4023438,3.4013672h7.7861328
	c1.9086914,0,3.4042969-1.4941406,3.4042969-3.4013672v-1.0668945h-7.7875977v-8.769043h16.5541992v9.8359375
	C47.6611328,46.0957031,42.2011719,51.5556641,35.4902344,51.5556641z M27.7041016,12.6196289
	c-6.1699219,0-11.1894531,5.0200195-11.1894531,11.1904297v15.5742188c0,6.1699219,5.0195312,11.1899414,11.1894531,11.1899414
	h7.7861328c6.1699219,0,11.1894531-5.0200195,11.1894531-11.1899414v-8.8540039H32.0883789v6.8051758h7.7875977v2.0488281
	c0,2.4580078-1.9262695,4.3828125-4.3857422,4.3828125h-7.7861328c-2.4580078,0-4.3837891-1.9248047-4.3837891-4.3828125V23.8100586
	c0-2.4584961,1.9257812-4.3847656,4.3837891-4.3847656h7.7861328c2.4594727,0,4.3857422,1.9262695,4.3857422,4.3847656v1.4555664
	h6.8037109v-1.4555664c0-6.1704102-5.0195312-11.1904297-11.1894531-11.1904297H27.7041016z"/>
<path fill="none" d="M49.3891602,50.059082c0.5249023-0.5058594,1.0273438-1.0336914,1.5083008-1.5825195L49.3891602,50.059082z"/>
<path fill="none" d="M12.1767578,14.7773438C8.2685547,19.2841797,5.8945312,25.1577148,5.8945312,31.578125
	c0,14.1625977,11.5224609,25.6845703,25.684082,25.6845703c6.4213867,0,12.2944336-2.3735352,16.8022461-6.2822266
	L12.1767578,14.7773438z"/>
<path fill="none" d="M13.7685547,13.0991211c-0.5195312,0.5014648-1.0185547,1.0234375-1.4951172,1.5668945L13.7685547,13.0991211z"
	/>
<path fill="none" d="M31.5786133,5.8945312c-6.4199219,0-12.2939453,2.3735352-16.8007812,6.2822266l36.2036133,36.2036133
	c3.9086914-4.5078125,6.2822266-10.3813477,6.2822266-16.8022461C57.2636719,17.4160156,45.7421875,5.8945312,31.5786133,5.8945312z
	"/>
<g>
	<path fill="#FFFAC2" d="M31.5786133,61.6660156c-16.590332,0-30.0878906-13.4975586-30.0878906-30.0878906
		S14.9882812,1.4907227,31.5786133,1.4907227c16.5908203,0,30.0883789,13.4970703,30.0883789,30.0874023
		S48.1694336,61.6660156,31.5786133,61.6660156z M11.7988281,14.449707
		c-4.1298828,4.7626953-6.4042969,10.8457031-6.4042969,17.128418c0,14.4379883,11.7460938,26.1845703,26.184082,26.1845703
		c6.2832031,0,12.3666992-2.2744141,17.1298828-6.4042969l0.4057617-0.3520508L12.1508789,14.0444336L11.7988281,14.449707z
		 M31.5786133,5.3945312c-6.2832031,0-12.3662109,2.2744141-17.128418,6.4042969l-0.4052734,0.3520508l36.9624023,36.9628906
		l0.3520508-0.4057617c4.1298828-4.7631836,6.4042969-10.8466797,6.4042969-17.1298828
		C57.7636719,17.140625,46.0170898,5.3945312,31.5786133,5.3945312z"/>
	<path fill="#A7A9AC" d="M31.5786133,1.9907227c16.3149414,0,29.5883789,13.2729492,29.5883789,29.5874023
		c0,16.3149414-13.2734375,29.5878906-29.5883789,29.5878906S1.9907227,47.8930664,1.9907227,31.578125
		C1.9907227,15.2636719,15.2636719,1.9907227,31.5786133,1.9907227 M51.0336914,49.8466797l0.703125-0.8110352
		c4.2089844-4.8540039,6.5268555-11.0537109,6.5268555-17.4575195c0-14.7133789-11.9707031-26.6835938-26.6850586-26.6835938
		c-6.4038086,0-12.6030273,2.3178711-17.4560547,6.5268555l-0.8110352,0.703125l0.7592773,0.7592773l36.2036133,36.2036133
		L51.0336914,49.8466797 M31.5786133,58.2626953c6.4038086,0,12.6035156-2.3178711,17.4575195-6.5268555l0.8110352-0.703125
		l-0.7592773-0.7592773l-36.2041016-36.203125l-0.7592773-0.7592773l-0.703125,0.8110352
		C7.2124023,18.9755859,4.8945312,25.1748047,4.8945312,31.578125
		C4.8945312,46.2919922,16.8647461,58.2626953,31.5786133,58.2626953 M31.5786133,0.9907227
		c-16.8930664,0-30.5878906,13.6938477-30.5878906,30.5874023s13.6948242,30.5878906,30.5878906,30.5878906
		S62.1669922,48.4716797,62.1669922,31.578125S48.4716797,0.9907227,31.5786133,0.9907227L31.5786133,0.9907227z
		 M50.9814453,48.3803711L14.777832,12.1767578c4.5068359-3.9086914,10.3808594-6.2822266,16.8007812-6.2822266
		c14.1635742,0,25.6850586,11.5214844,25.6850586,25.6835938C57.2636719,37.9990234,54.8901367,43.8725586,50.9814453,48.3803711
		L50.9814453,48.3803711z M31.5786133,57.2626953c-14.1616211,0-25.684082-11.5219727-25.684082-25.6845703
		c0-6.4204102,2.3740234-12.2939453,6.2822266-16.8007812l36.2041016,36.203125
		C43.8730469,54.8891602,38,57.2626953,31.5786133,57.2626953L31.5786133,57.2626953z"/>
</g>
<path d="M31.5786133,62.6567383C14.4418945,62.6567383,0.5,48.715332,0.5,31.578125C0.5,14.4414062,14.4418945,0.5,31.5786133,0.5
	c17.137207,0,31.0791016,13.9414062,31.0791016,31.078125C62.6577148,48.715332,48.7158203,62.6567383,31.5786133,62.6567383z
	 M31.5786133,1.4814453c-16.5957031,0-30.097168,13.5014648-30.097168,30.0966797s13.5014648,30.097168,30.097168,30.097168
	s30.0976562-13.5019531,30.0976562-30.097168S48.1743164,1.4814453,31.5786133,1.4814453z M31.5786133,57.7529297
	c-14.4326172,0-26.1748047-11.7416992-26.1748047-26.1748047c0-6.2797852,2.2734375-12.3613281,6.4023438-17.1225586
	l0.3452148-0.3979492l36.9487305,36.9477539l-0.3979492,0.3461914
	C43.940918,55.4794922,37.8603516,57.7529297,31.5786133,57.7529297z M12.2070312,15.5004883
	C8.4487305,20.0209961,6.3852539,25.7094727,6.3852539,31.578125c0,13.8916016,11.3017578,25.1933594,25.1933594,25.1933594
	c5.8701172,0,11.5581055-2.0629883,16.0786133-5.8203125L12.2070312,15.5004883z M51.0063477,49.0996094L14.0585938,12.1513672
	l0.3974609-0.3452148c4.7607422-4.128418,10.8422852-6.4023438,17.1225586-6.4023438
	c14.4335938,0,26.1762695,11.7416992,26.1762695,26.1743164c0,6.2807617-2.2734375,12.3623047-6.402832,17.1235352
	L51.0063477,49.0996094z M15.5009766,12.206543l35.4506836,35.4501953
	c3.7583008-4.5209961,5.8217773-10.2084961,5.8217773-16.0786133c0-13.8911133-11.3027344-25.1928711-25.1948242-25.1928711
	C25.7094727,6.3852539,20.0214844,8.4487305,15.5009766,12.206543z"/>
<g>
	<path fill="#A7A9AC" d="M31.5825195,6.8759766c13.6166992,0,24.6943359,11.0771484,24.6943359,24.6933594
		c0,5.5537109-1.8994141,10.9765625-5.3598633,15.3325195L16.2504883,12.2358398
		C20.6064453,8.7753906,26.0288086,6.8759766,31.5825195,6.8759766 M31.5825195,6.3759766
		c-5.8696289,0-11.5576172,2.0634766-16.0776367,5.8212891l35.4506836,35.4501953
		c3.7583008-4.5205078,5.8212891-10.2084961,5.8212891-16.078125C56.7768555,17.6777344,45.4746094,6.3759766,31.5825195,6.3759766
		L31.5825195,6.3759766z"/>
</g>
<g>
	<path fill="#A7A9AC" d="M12.269043,16.2524414L46.9355469,50.918457c-4.3549805,3.4599609-9.7773438,5.359375-15.331543,5.359375
		c-13.6166992,0-24.6943359-11.0771484-24.6943359-24.6928711C6.909668,26.03125,8.809082,20.6083984,12.269043,16.2524414
		 M12.2304688,15.5068359C8.4726562,20.0273438,6.409668,25.715332,6.409668,31.5849609
		c0,13.8911133,11.3017578,25.1928711,25.1943359,25.1928711c5.8696289,0,11.5576172-2.0629883,16.0771484-5.8208008
		L12.2304688,15.5068359L12.2304688,15.5068359z"/>
</g>
<g>
	<path fill="#A7A9AC" d="M31.5786133,0.5c17.137207,0,31.0791016,13.9414062,31.0791016,31.078125
		c0,17.137207-13.9418945,31.0786133-31.0791016,31.0786133C14.4418945,62.6567383,0.5,48.715332,0.5,31.578125
		C0.5,14.4414062,14.4418945,0.5,31.5786133,0.5 M31.5786133,0C14.1660156,0,0,14.1660156,0,31.578125
		c0,17.4125977,14.1660156,31.5786133,31.5786133,31.5786133S63.1577148,48.9907227,63.1577148,31.578125
		C63.1577148,14.1660156,48.9912109,0,31.5786133,0L31.5786133,0z"/>
</g>
<path d="M54.5981445,11.4291992c4.7832031,5.3969727,7.6914062,12.4931641,7.6914062,20.2714844
	c0,16.8930664-13.6953125,30.5878906-30.5883789,30.5878906c-7.7783203,0-14.8745117-2.9077148-20.2724609-7.6923828
	c5.6040039,6.3256836,13.7822266,10.3168945,22.8974609,10.3168945c16.8920898,0,30.5878906-13.6943359,30.5878906-30.5883789
	C64.9140625,25.2109375,60.9228516,17.0332031,54.5981445,11.4291992L54.5981445,11.4291992z"/>
</svg>
