<?xml version="1.0" encoding="utf-8"?>
<!-- Generator: Adobe Illustrator 15.0.2, SVG Export Plug-In  -->
<!DOCTYPE svg PUBLIC "-//W3C//DTD SVG 1.1//EN" "http://www.w3.org/Graphics/SVG/1.1/DTD/svg11.dtd" [
	<!ENTITY ns_flows "http://ns.adobe.com/Flows/1.0/">
]>
<svg version="1.1"
	 xmlns="http://www.w3.org/2000/svg" xmlns:xlink="http://www.w3.org/1999/xlink" xmlns:a="http://ns.adobe.com/AdobeSVGViewerExtensions/3.0/"
	 x="0px" y="0px" width="100px" height="100px" viewBox="-34.648 0.524 100 100"
	 overflow="visible" enable-background="new -34.648 0.524 100 100" xml:space="preserve">
<defs>
</defs>
<path fill-rule="evenodd" clip-rule="evenodd" d="M30.205,92.039c0,0.427,0,0.854,0,1.28c-0.262,2.107-0.49,4.251-1.691,5.418
	c-3.175,1.523-7.226,1.825-11.355,1.805c-1.879-0.012-3.881-0.065-5.939-0.351c-2.173-0.301-4.791-0.769-5.707-2.038
	c-1.757-2.435-0.816-6.989-0.816-10.716c0-12.042,0-24.295,0-36.105c0-2.028-0.112-3.938,0.176-5.707
	c0.251-1.549,0.797-3.021,1.571-4.426c0.75-1.36,1.737-2.383,2.33-3.667c0.641-1.396,0.772-3.124,0.931-5.125
	c0.285-3.565,0.465-7.565,0.932-11.067c0.211-1.583,0.515-3.47,0.758-5.241c0.222-1.627,0.614-3.933,0.524-5.532
	c-0.031-0.537-0.489-0.375-0.524-0.931c-0.057-0.872,0.68-1.742,0.815-2.737c0.07-0.519-0.275-1.179-0.117-1.573
	c0.413-1.016,3.656-0.874,5.066-0.874c1.382,0,4.748-0.146,5.126,0.817c0.116,0.297-0.061,0.385-0.119,0.699
	c-0.239,1.397,1.002,2.565,0.874,3.668c-0.079,0.708-0.458,0.248-0.581,0.931c-0.106,0.608,0.135,1.616,0.234,2.447
	c0.102,0.867,0.188,1.767,0.29,2.445c0.693,4.695,1.244,9.681,1.634,14.675c0.138,1.828,0.164,3.508,0.403,5.008
	c0.255,1.593,0.825,2.762,1.574,3.904c1.419,2.163,2.952,4.433,3.203,7.685c0.277,3.559,0.058,7.197,0.058,10.832
	c0,9.101,0,18.119,0,27.196C29.854,87.431,29.688,89.989,30.205,92.039z"/>
<path fill-rule="evenodd" clip-rule="evenodd" fill="#FFFAC2" stroke="#000000" stroke-miterlimit="10" d="M26.26,88.093
	c0,0.428,0,0.856,0,1.28c-0.262,2.108-0.489,4.252-1.69,5.418c-3.174,1.524-7.227,1.827-11.354,1.806
	c-1.88-0.012-3.882-0.065-5.94-0.352c-2.173-0.3-4.791-0.768-5.707-2.036c-1.758-2.436-0.816-6.99-0.816-10.718
	c0-12.041,0-24.293,0-36.104c0-2.028-0.112-3.938,0.175-5.707c0.252-1.549,0.798-3.02,1.572-4.426c0.75-1.36,1.737-2.382,2.33-3.667
	c0.641-1.396,0.772-3.125,0.931-5.125c0.285-3.565,0.465-7.565,0.932-11.066c0.211-1.583,0.515-3.47,0.757-5.242
	c0.222-1.628,0.614-3.933,0.524-5.532C7.943,6.086,7.484,6.248,7.449,5.691C7.393,4.82,8.129,3.949,8.265,2.954
	c0.07-0.518-0.276-1.178-0.117-1.572c0.412-1.016,3.656-0.875,5.067-0.875c1.382,0,4.748-0.146,5.125,0.817
	c0.116,0.297-0.062,0.386-0.119,0.699c-0.239,1.397,1.001,2.566,0.874,3.668c-0.08,0.709-0.458,0.249-0.581,0.932
	c-0.107,0.607,0.135,1.616,0.235,2.447c0.1,0.866,0.188,1.767,0.288,2.445c0.693,4.695,1.244,9.681,1.634,14.675
	c0.139,1.828,0.166,3.51,0.404,5.008c0.254,1.59,0.824,2.762,1.576,3.904c1.417,2.163,2.949,4.434,3.2,7.685
	c0.277,3.559,0.058,7.195,0.058,10.832c0,9.103,0,18.119,0,27.197C25.909,83.487,25.743,86.044,26.26,88.093z"/>
<path d="M19.73,67.823c0,2.667-2.334,4.669-5.428,4.669c-1.62,0-2.881-0.359-3.905-0.905v0.737H7.063v-5h3.073
	c1.167,1.262,2.333,1.833,4.166,1.833c1.215,0,2.096-0.549,2.096-1.334c0-1.356-1.833-1.929-3.335-2.167
	c-5.381-0.81-6.167-3.689-6.167-5.333c0-2.716,2.382-4.834,5.407-4.834c1.594,0,2.785,0.334,3.761,0.879v-0.713h3.335v5.002h-3.358
	c-1.072-1.216-1.904-1.834-3.737-1.834c-1.312,0-2.073,0.761-2.073,1.5c0,1.023,1.12,1.714,3.334,2.048
	C19.114,63.204,19.73,66.466,19.73,67.823z"/>
</svg>
