<?xml version="1.0" encoding="utf-8"?>
<!-- Generator: Adobe Illustrator 15.0.2, SVG Export Plug-In  -->
<!DOCTYPE svg PUBLIC "-//W3C//DTD SVG 1.1//EN" "http://www.w3.org/Graphics/SVG/1.1/DTD/svg11.dtd" [
	<!ENTITY ns_flows "http://ns.adobe.com/Flows/1.0/">
]>
<svg version="1.1"
	 xmlns="http://www.w3.org/2000/svg" xmlns:xlink="http://www.w3.org/1999/xlink" xmlns:a="http://ns.adobe.com/AdobeSVGViewerExtensions/3.0/"
	 x="0px" y="0px" width="51px" height="73px" viewBox="0 0 51 73" overflow="visible" enable-background="new 0 0 51 73"
	 xml:space="preserve">
<defs>
</defs>
<path d="M26.9,3.3c-13,0-23.6,10.5-23.6,23.4c0,6.6,6.5,18.5,6.5,18.5l16.2,27.5L43,45.6c0,0,7.5-11.3,7.5-18.8
	C50.5,13.8,39.9,3.3,26.9,3.3z M26.8,39.7c-7.5,0-13.5-6-13.5-13.5c0-7.5,6-13.5,13.5-13.5s13.5,6,13.5,13.5
	C40.3,33.6,34.3,39.7,26.8,39.7z"/>
<path fill="#FFFAC2" d="M24.1,0.5C11.1,0.5,0.5,11,0.5,23.9C0.5,30.6,7,42.4,7,42.4l16.2,27.5l16.9-27.2c0,0,7.5-11.3,7.5-18.8
	C47.7,11,37.1,0.5,24.1,0.5z M24,36.8c-7.5,0-13.5-6-13.5-13.5c0-7.5,6-13.5,13.5-13.5c7.5,0,13.5,6,13.5,13.5
	C37.5,30.8,31.4,36.8,24,36.8z"/>
<path d="M23.2,70.9L6.6,42.7C6.3,42.2,0,30.6,0,23.9C0,10.7,10.8,0,24.1,0c13.3,0,24.1,10.7,24.1,23.9c0,7.6-7.3,18.6-7.6,19.1
	L23.2,70.9z M24.1,1C11.4,1,1,11.3,1,23.9c0,6.4,6.4,18.1,6.4,18.2L23.2,69l16.5-26.5c0.1-0.1,7.4-11.3,7.4-18.5
	C47.2,11.3,36.8,1,24.1,1z M24,37.3c-7.7,0-14-6.3-14-14c0-7.7,6.3-14,14-14c7.7,0,14,6.3,14,14C38,31.1,31.7,37.3,24,37.3z
	 M24,10.3c-7.2,0-13,5.8-13,13c0,7.2,5.8,13,13,13c7.2,0,13-5.8,13-13C37,16.2,31.1,10.3,24,10.3z"/>
</svg>
