<?xml version="1.0" encoding="utf-8"?>
<!-- Generator: Adobe Illustrator 15.0.2, SVG Export Plug-In  -->
<!DOCTYPE svg PUBLIC "-//W3C//DTD SVG 1.1//EN" "http://www.w3.org/Graphics/SVG/1.1/DTD/svg11.dtd" [
	<!ENTITY ns_flows "http://ns.adobe.com/Flows/1.0/">
]>
<svg version="1.1"
	 xmlns="http://www.w3.org/2000/svg" xmlns:xlink="http://www.w3.org/1999/xlink" xmlns:a="http://ns.adobe.com/AdobeSVGViewerExtensions/3.0/"
	 x="0px" y="0px" width="51px" height="75px" viewBox="0 0 51 75" overflow="visible" enable-background="new 0 0 51 75"
	 xml:space="preserve">
<defs>
</defs>
<path fill-rule="evenodd" clip-rule="evenodd" d="M50.5,66.691c0,0.309,0,0.618,0,0.925c-0.188,1.523-0.353,3.075-1.222,3.919
	c-2.295,1.1-5.227,1.32-8.211,1.304c-1.359-0.009-2.808-0.048-4.295-0.254c-1.571-0.217-3.465-0.554-4.127-1.473
	c-1.271-1.76-0.589-5.053-0.589-7.749c0-8.707,0-17.567,0-26.106c0-1.467-0.082-2.848,0.125-4.127
	c0.183-1.119,0.577-2.183,1.137-3.2c0.543-0.983,1.256-1.723,1.686-2.652c0.464-1.009,0.559-2.259,0.674-3.706
	c0.206-2.577,0.336-5.469,0.674-8.001c0.152-1.145,0.372-2.509,0.548-3.79c0.16-1.177,0.444-2.844,0.378-4
	c-0.021-0.388-0.354-0.271-0.378-0.673c-0.041-0.63,0.491-1.26,0.589-1.979c0.05-0.375-0.199-0.853-0.084-1.137
	c0.299-0.735,2.644-0.632,3.663-0.632c1,0,3.435-0.105,3.706,0.591c0.083,0.215-0.045,0.279-0.085,0.505
	c-0.175,1.01,0.724,1.855,0.632,2.652c-0.06,0.512-0.333,0.18-0.42,0.673c-0.08,0.439,0.097,1.168,0.168,1.77
	c0.074,0.626,0.138,1.277,0.211,1.768c0.499,3.396,0.897,7,1.179,10.611c0.103,1.322,0.121,2.537,0.294,3.621
	c0.184,1.151,0.597,1.997,1.138,2.822c1.025,1.564,2.134,3.208,2.315,5.559c0.2,2.572,0.043,5.203,0.043,7.832
	c0,6.582,0,13.103,0,19.665C50.248,63.36,50.127,65.209,50.5,66.691z"/>
<path fill-rule="evenodd" clip-rule="evenodd" fill="#FFFAC2" d="M47.647,63.839c0,0.309,0,0.618,0,0.924
	c-0.188,1.524-0.353,3.075-1.222,3.919c-2.295,1.101-5.227,1.32-8.211,1.304c-1.359-0.008-2.808-0.047-4.295-0.253
	c-1.57-0.217-3.465-0.554-4.126-1.473c-1.271-1.761-0.589-5.053-0.589-7.749c0-8.707,0-17.567,0-26.106
	c0-1.466-0.083-2.848,0.125-4.126c0.183-1.12,0.576-2.184,1.137-3.201c0.543-0.984,1.256-1.723,1.685-2.652
	c0.464-1.009,0.559-2.259,0.674-3.706c0.206-2.577,0.336-5.469,0.675-8.001c0.151-1.145,0.371-2.509,0.547-3.79
	c0.16-1.177,0.444-2.844,0.379-4.001c-0.022-0.388-0.354-0.271-0.379-0.673c-0.04-0.63,0.491-1.26,0.589-1.979
	c0.051-0.375-0.199-0.852-0.083-1.137c0.298-0.734,2.643-0.632,3.662-0.632c1,0,3.435-0.105,3.706,0.59
	c0.084,0.215-0.044,0.279-0.085,0.506c-0.174,1.01,0.725,1.854,0.633,2.652c-0.061,0.512-0.333,0.18-0.421,0.673
	c-0.079,0.439,0.098,1.169,0.169,1.77c0.073,0.627,0.138,1.278,0.21,1.768c0.5,3.396,0.898,7,1.18,10.612
	c0.102,1.321,0.121,2.536,0.294,3.621c0.184,1.151,0.596,1.997,1.138,2.822c1.024,1.565,2.134,3.208,2.314,5.558
	c0.2,2.572,0.043,5.203,0.043,7.832c0,6.582,0,13.103,0,19.665C47.396,60.507,47.274,62.357,47.647,63.839z"/>
<path d="M38.515,70.487l-0.303-0.001c-1.359-0.008-2.828-0.045-4.361-0.258c-1.878-0.26-3.72-0.643-4.463-1.676
	c-1.048-1.451-0.908-3.715-0.773-5.904c0.044-0.716,0.09-1.457,0.09-2.137V34.404c0-0.328-0.004-0.651-0.008-0.97
	c-0.015-1.132-0.028-2.202,0.14-3.236c0.184-1.129,0.585-2.26,1.192-3.362c0.258-0.468,0.547-0.875,0.826-1.268
	c0.322-0.454,0.626-0.883,0.843-1.353c0.421-0.915,0.516-2.105,0.625-3.482c0.064-0.812,0.119-1.598,0.173-2.394
	c0.131-1.911,0.267-3.886,0.508-5.687c0.081-0.609,0.181-1.281,0.283-1.97c0.09-0.605,0.182-1.222,0.264-1.822l0.086-0.612
	c0.152-1.058,0.341-2.374,0.289-3.293c-0.111-0.055-0.352-0.244-0.379-0.669c-0.029-0.465,0.15-0.879,0.323-1.28
	c0.121-0.278,0.234-0.541,0.269-0.799c0.012-0.088-0.021-0.246-0.05-0.386c-0.056-0.271-0.12-0.577,0-0.872
	c0.319-0.787,1.553-0.948,3.307-0.948l0.818,0.005L39.097,0c1.76,0,2.993,0.156,3.29,0.915c0.128,0.329,0.027,0.563-0.027,0.689
	c-0.099,0.481,0.079,0.884,0.268,1.311c0.195,0.441,0.396,0.896,0.338,1.397c-0.05,0.425-0.234,0.602-0.422,0.707
	c-0.037,0.279,0.029,0.692,0.088,1.059c0.03,0.191,0.061,0.382,0.082,0.561l0.066,0.585c0.047,0.425,0.093,0.835,0.142,1.169
	c0.499,3.39,0.897,6.972,1.184,10.646c0.033,0.427,0.057,0.842,0.081,1.246c0.049,0.834,0.095,1.623,0.208,2.335
	c0.188,1.175,0.642,1.987,1.062,2.626l0.074,0.113c1.001,1.527,2.135,3.259,2.321,5.682c0.141,1.808,0.107,3.668,0.074,5.466
	c-0.015,0.8-0.029,1.602-0.029,2.404v19.665c0,0.388-0.005,0.773-0.01,1.152c-0.019,1.475-0.036,2.868,0.247,3.99l0.015,0.122
	l-0.021,1.13c-0.188,1.54-0.384,3.132-1.352,4.072l-0.132,0.092C44.14,70.333,40.985,70.487,38.515,70.487z M37.396,1.001
	c-2.038,0-2.345,0.279-2.385,0.335c0.003,0.021,0.036,0.178,0.058,0.281c0.045,0.219,0.097,0.467,0.062,0.725
	c-0.054,0.395-0.207,0.749-0.343,1.062c-0.132,0.305-0.257,0.594-0.243,0.819c0.117,0.071,0.355,0.258,0.379,0.676
	c0.058,1.02-0.139,2.391-0.297,3.492l-0.085,0.605c-0.083,0.604-0.175,1.225-0.266,1.833c-0.102,0.683-0.201,1.35-0.281,1.955
	c-0.237,1.77-0.372,3.729-0.502,5.624c-0.055,0.8-0.109,1.589-0.17,2.352c-0.122,1.525-0.223,2.797-0.718,3.875
	c-0.255,0.554-0.601,1.041-0.936,1.513c-0.263,0.371-0.535,0.754-0.765,1.172c-0.552,1.001-0.916,2.023-1.081,3.04
	c-0.154,0.947-0.141,1.975-0.127,3.062c0.004,0.323,0.008,0.651,0.008,0.983V60.51c0,0.71-0.047,1.467-0.092,2.198
	c-0.125,2.014-0.253,4.096,0.586,5.258c0.596,0.829,2.834,1.138,3.789,1.271c1.476,0.205,2.905,0.24,4.229,0.249l0.297,0.001
	c2.337,0,5.308-0.14,7.617-1.219c0.67-0.712,0.838-2.089,1.001-3.421l0.018-0.145l-0.003-0.801c-0.299-1.236-0.281-2.67-0.262-4.187
	c0.005-0.375,0.01-0.755,0.01-1.139V38.91c0-0.808,0.015-1.616,0.029-2.422c0.033-1.775,0.066-3.61-0.071-5.372
	c-0.167-2.167-1.18-3.714-2.161-5.21l-0.074-0.112c-0.677-1.031-1.04-1.934-1.213-3.018c-0.122-0.762-0.169-1.574-0.219-2.434
	c-0.023-0.398-0.047-0.807-0.08-1.227c-0.284-3.651-0.68-7.209-1.176-10.577c-0.051-0.344-0.098-0.766-0.146-1.204L41.72,6.755
	c-0.02-0.166-0.048-0.343-0.077-0.521c-0.078-0.491-0.159-0.999-0.088-1.395c0.067-0.377,0.238-0.545,0.412-0.646
	c0.011-0.271-0.118-0.564-0.255-0.874c-0.217-0.492-0.488-1.105-0.369-1.801c0.02-0.112,0.051-0.198,0.078-0.262
	C41.294,1.181,40.806,1,39.097,1l-0.882,0.006L37.396,1.001z"/>
<path d="M42.463,48.902c0,1.737-1.518,3.038-3.532,3.038c-1.056,0-1.876-0.232-2.54-0.588v0.48h-2.173v-3.255h2.002
	c0.759,0.822,1.518,1.195,2.711,1.195c0.791,0,1.364-0.359,1.364-0.871c0-0.881-1.194-1.253-2.17-1.408
	c-3.503-0.526-4.014-2.402-4.014-3.474c0-1.766,1.55-3.145,3.519-3.145c1.036,0,1.812,0.217,2.447,0.574v-0.468h2.17v3.257h-2.186
	c-0.697-0.792-1.239-1.193-2.432-1.193c-0.854,0-1.349,0.493-1.349,0.975c0,0.667,0.728,1.117,2.169,1.334
	C42.062,45.896,42.463,48.021,42.463,48.902z"/>
<path fill-rule="evenodd" clip-rule="evenodd" d="M21.978,66.729c0,0.309,0,0.619,0,0.926c-0.188,1.523-0.352,3.073-1.221,3.917
	c-2.295,1.102-5.227,1.32-8.211,1.305c-1.359-0.009-2.808-0.048-4.295-0.254c-1.571-0.217-3.465-0.556-4.126-1.473
	c-1.271-1.76-0.589-5.054-0.589-7.749c0-8.707,0-17.567,0-26.107c0-1.466-0.083-2.848,0.125-4.126c0.183-1.12,0.577-2.183,1.137-3.2
	c0.543-0.984,1.256-1.723,1.685-2.652c0.463-1.009,0.558-2.259,0.674-3.706c0.206-2.577,0.335-5.469,0.674-8
	c0.151-1.145,0.372-2.509,0.547-3.791c0.16-1.177,0.444-2.844,0.379-4C8.734,7.43,8.402,7.546,8.377,7.145
	c-0.04-0.631,0.492-1.26,0.589-1.979c0.05-0.375-0.199-0.852-0.083-1.137c0.298-0.735,2.644-0.633,3.663-0.633
	c1,0,3.435-0.104,3.706,0.591c0.083,0.215-0.044,0.279-0.085,0.506c-0.174,1.01,0.724,1.854,0.632,2.652
	c-0.06,0.512-0.333,0.179-0.421,0.673c-0.079,0.439,0.098,1.169,0.169,1.77c0.074,0.627,0.138,1.278,0.21,1.768
	c0.5,3.395,0.898,7,1.18,10.611c0.102,1.322,0.121,2.537,0.294,3.621c0.184,1.151,0.596,1.998,1.138,2.822
	c1.025,1.565,2.134,3.208,2.314,5.559c0.201,2.572,0.043,5.204,0.043,7.832c0,6.582,0,13.102,0,19.666
	C21.726,63.397,21.605,65.247,21.978,66.729z"/>
<path fill-rule="evenodd" clip-rule="evenodd" fill="#FFFAC2" d="M19.126,63.876c0,0.309,0,0.618,0,0.926
	c-0.188,1.524-0.353,3.074-1.222,3.918c-2.295,1.102-5.227,1.32-8.211,1.305c-1.359-0.008-2.808-0.047-4.295-0.253
	c-1.571-0.217-3.465-0.556-4.126-1.473C0,66.538,0.683,63.244,0.683,60.549c0-8.707,0-17.567,0-26.107
	c0-1.466-0.082-2.848,0.125-4.126c0.182-1.12,0.577-2.183,1.136-3.2c0.543-0.984,1.256-1.723,1.686-2.652
	c0.463-1.009,0.558-2.259,0.674-3.706c0.206-2.577,0.335-5.469,0.674-8.001c0.152-1.145,0.372-2.509,0.547-3.79
	c0.16-1.177,0.444-2.844,0.379-4C5.882,4.578,5.55,4.694,5.525,4.292c-0.041-0.63,0.492-1.26,0.589-1.979
	c0.05-0.375-0.199-0.852-0.083-1.137c0.298-0.734,2.643-0.632,3.663-0.632c1,0,3.435-0.105,3.706,0.59
	c0.083,0.216-0.045,0.279-0.085,0.506c-0.174,1.011,0.724,1.855,0.632,2.652c-0.06,0.513-0.333,0.18-0.42,0.673
	c-0.08,0.439,0.098,1.168,0.168,1.769c0.074,0.627,0.138,1.278,0.21,1.769c0.5,3.395,0.898,7,1.18,10.611
	c0.102,1.321,0.121,2.537,0.293,3.621c0.184,1.151,0.596,1.997,1.138,2.822c1.025,1.564,2.133,3.207,2.314,5.558
	c0.201,2.572,0.043,5.203,0.043,7.832c0,6.582,0,13.102,0,19.666C18.874,60.545,18.752,62.395,19.126,63.876z"/>
<path d="M9.979,70.526l-0.288-0.001c-1.357-0.008-2.825-0.045-4.361-0.258c-1.877-0.259-3.718-0.642-4.463-1.676
	c-1.048-1.452-0.909-3.716-0.773-5.907c0.044-0.716,0.09-1.456,0.09-2.135V34.442c0-0.326-0.004-0.648-0.008-0.965
	c-0.014-1.134-0.028-2.206,0.14-3.241c0.183-1.125,0.584-2.256,1.192-3.361c0.259-0.469,0.547-0.875,0.827-1.269
	c0.322-0.454,0.626-0.883,0.843-1.352c0.42-0.915,0.515-2.103,0.625-3.479c0.065-0.818,0.12-1.607,0.174-2.406
	c0.131-1.908,0.267-3.88,0.507-5.679c0.08-0.6,0.178-1.261,0.279-1.938c0.092-0.615,0.186-1.243,0.269-1.853l0.086-0.612
	c0.152-1.058,0.341-2.374,0.289-3.292C5.293,4.939,5.053,4.75,5.026,4.324c-0.03-0.465,0.15-0.879,0.323-1.28
	c0.121-0.278,0.235-0.541,0.27-0.798C5.63,2.159,5.597,2,5.568,1.86C5.512,1.59,5.448,1.283,5.567,0.988
	C5.887,0.201,7.119,0.04,8.871,0.04l0.822,0.005l0.886-0.006c1.758,0,2.989,0.156,3.286,0.914c0.127,0.329,0.027,0.562-0.027,0.688
	c-0.1,0.483,0.079,0.886,0.267,1.312c0.194,0.44,0.396,0.896,0.338,1.397c-0.049,0.424-0.233,0.602-0.421,0.707
	c-0.037,0.279,0.029,0.69,0.087,1.055c0.031,0.192,0.061,0.384,0.083,0.564l0.071,0.627c0.045,0.41,0.089,0.804,0.137,1.127
	c0.498,3.382,0.896,6.964,1.184,10.646c0.033,0.428,0.057,0.844,0.081,1.249c0.049,0.833,0.095,1.621,0.208,2.333
	c0.188,1.175,0.643,1.987,1.062,2.626l0.07,0.107c1.002,1.528,2.138,3.261,2.325,5.687c0.141,1.81,0.107,3.67,0.074,5.469
	c-0.015,0.799-0.029,1.601-0.029,2.401v19.666c0,0.389-0.005,0.774-0.01,1.153c-0.019,1.473-0.036,2.865,0.247,3.987l0.015,0.122
	l-0.022,1.136c-0.189,1.538-0.384,3.128-1.352,4.067l-0.132,0.092C15.619,70.372,12.456,70.526,9.979,70.526z M8.871,1.04
	c-2.035,0-2.341,0.279-2.382,0.334c0.003,0.021,0.036,0.179,0.058,0.283C6.593,1.875,6.644,2.122,6.61,2.379
	c-0.054,0.395-0.208,0.75-0.343,1.062C6.134,3.748,6.009,4.036,6.024,4.26c0.117,0.072,0.355,0.259,0.379,0.677
	c0.058,1.019-0.139,2.39-0.297,3.491L6.021,9.034C5.937,9.648,5.842,10.28,5.75,10.899c-0.1,0.672-0.198,1.328-0.277,1.923
	c-0.236,1.767-0.371,3.723-0.5,5.615c-0.055,0.803-0.109,1.595-0.17,2.36c-0.122,1.528-0.224,2.798-0.718,3.875
	c-0.256,0.554-0.602,1.041-0.936,1.512c-0.263,0.371-0.535,0.754-0.767,1.173c-0.552,1.003-0.916,2.026-1.08,3.039
	c-0.154,0.949-0.141,1.979-0.127,3.068c0.004,0.322,0.008,0.648,0.008,0.978v26.107c0,0.709-0.046,1.465-0.092,2.196
	c-0.124,2.015-0.252,4.098,0.586,5.26c0.598,0.829,2.834,1.138,3.79,1.271c1.479,0.205,2.907,0.24,4.229,0.249l0.283,0.001
	c2.344,0,5.322-0.14,7.631-1.22c0.669-0.711,0.838-2.085,1.001-3.416l0.019-0.149l-0.003-0.803
	c-0.299-1.235-0.281-2.668-0.262-4.184c0.005-0.375,0.01-0.756,0.01-1.141V38.948c0-0.807,0.015-1.614,0.029-2.42
	c0.033-1.775,0.066-3.611-0.071-5.373c-0.167-2.17-1.183-3.718-2.164-5.216l-0.07-0.107c-0.677-1.031-1.04-1.934-1.213-3.017
	c-0.121-0.762-0.168-1.573-0.219-2.433c-0.023-0.398-0.047-0.809-0.08-1.229c-0.286-3.658-0.681-7.217-1.176-10.577
	c-0.049-0.333-0.095-0.739-0.142-1.162l-0.07-0.621c-0.02-0.167-0.048-0.346-0.077-0.524c-0.078-0.49-0.159-0.997-0.087-1.392
	c0.067-0.376,0.244-0.547,0.411-0.646c0.012-0.271-0.118-0.564-0.255-0.874c-0.217-0.492-0.488-1.105-0.368-1.802
	c0.02-0.112,0.051-0.198,0.078-0.263c-0.126-0.073-0.613-0.253-2.32-0.253L9.693,1.044L8.871,1.04z"/>
<path d="M13.941,48.941c0,1.737-1.518,3.038-3.532,3.038c-1.056,0-1.876-0.231-2.542-0.588v0.479h-2.17v-3.253h2
	c0.759,0.822,1.518,1.194,2.711,1.194c0.791,0,1.363-0.358,1.363-0.869c0-0.881-1.193-1.255-2.17-1.411
	C6.1,47.004,5.589,45.129,5.589,44.06c0-1.766,1.55-3.145,3.52-3.145c1.036,0,1.812,0.216,2.447,0.572v-0.465h2.17v3.254H11.54
	c-0.698-0.791-1.239-1.192-2.432-1.192c-0.854,0-1.35,0.494-1.35,0.975c0,0.666,0.729,1.117,2.17,1.333
	C13.54,45.936,13.941,48.06,13.941,48.941z"/>
<path fill-rule="evenodd" clip-rule="evenodd" d="M36.239,68.507c0,0.309,0,0.618,0,0.926c-0.188,1.523-0.353,3.074-1.222,3.917
	c-2.295,1.102-5.227,1.32-8.211,1.305c-1.359-0.009-2.808-0.048-4.295-0.254c-1.571-0.217-3.465-0.556-4.127-1.473
	c-1.271-1.76-0.589-5.054-0.589-7.749c0-8.707,0-17.567,0-26.107c0-1.466-0.082-2.848,0.125-4.126
	c0.183-1.12,0.577-2.184,1.137-3.201c0.543-0.984,1.256-1.723,1.685-2.652c0.464-1.009,0.559-2.259,0.674-3.706
	c0.206-2.577,0.335-5.469,0.674-8.001c0.152-1.145,0.372-2.509,0.547-3.79c0.16-1.177,0.444-2.844,0.379-4.001
	c-0.022-0.388-0.354-0.271-0.379-0.673c-0.041-0.63,0.492-1.26,0.589-1.979c0.05-0.375-0.199-0.852-0.084-1.137
	c0.298-0.735,2.644-0.632,3.663-0.632c1,0,3.434-0.105,3.706,0.59c0.083,0.215-0.045,0.279-0.085,0.506
	c-0.175,1.01,0.724,1.854,0.632,2.652c-0.06,0.512-0.333,0.18-0.421,0.673c-0.079,0.439,0.098,1.169,0.169,1.77
	c0.073,0.627,0.138,1.278,0.21,1.768c0.5,3.395,0.898,7,1.18,10.612c0.102,1.321,0.121,2.536,0.294,3.621
	c0.184,1.151,0.597,1.997,1.138,2.822c1.025,1.565,2.134,3.208,2.314,5.558c0.201,2.573,0.044,5.204,0.044,7.832
	c0,6.582,0,13.102,0,19.666C35.987,65.176,35.865,67.025,36.239,68.507z"/>
<path fill-rule="evenodd" clip-rule="evenodd" fill="#FFFAC2" d="M33.387,65.655c0,0.309,0,0.618,0,0.926
	c-0.188,1.524-0.353,3.074-1.222,3.918c-2.295,1.102-5.227,1.32-8.211,1.305c-1.359-0.008-2.808-0.047-4.295-0.253
	c-1.571-0.218-3.465-0.556-4.126-1.474c-1.271-1.761-0.589-5.054-0.589-7.749c0-8.707,0-17.567,0-26.107
	c0-1.466-0.083-2.848,0.125-4.126c0.183-1.12,0.577-2.183,1.137-3.2c0.543-0.984,1.256-1.723,1.685-2.652
	c0.464-1.009,0.559-2.259,0.674-3.706c0.206-2.577,0.336-5.469,0.674-8.001c0.152-1.145,0.372-2.509,0.547-3.79
	c0.16-1.177,0.444-2.844,0.379-4c-0.022-0.388-0.354-0.272-0.379-0.674c-0.041-0.63,0.491-1.26,0.589-1.979
	c0.05-0.376-0.199-0.853-0.083-1.138c0.298-0.734,2.643-0.632,3.663-0.632c1,0,3.435-0.105,3.706,0.59
	c0.084,0.215-0.045,0.279-0.085,0.505c-0.174,1.011,0.724,1.855,0.632,2.652c-0.06,0.513-0.332,0.18-0.42,0.674
	c-0.08,0.439,0.098,1.168,0.168,1.769c0.074,0.626,0.139,1.278,0.211,1.768c0.5,3.396,0.898,7,1.18,10.611
	c0.102,1.321,0.121,2.537,0.293,3.621c0.185,1.151,0.597,1.997,1.139,2.822c1.024,1.564,2.133,3.207,2.314,5.558
	c0.2,2.572,0.043,5.203,0.043,7.832c0,6.582,0,13.103,0,19.666C33.135,62.324,33.014,64.173,33.387,65.655z"/>
<path d="M24.24,72.304l-0.288-0.001c-1.355-0.008-2.822-0.044-4.361-0.258c-1.878-0.26-3.719-0.644-4.463-1.676
	c-1.048-1.452-0.908-3.716-0.773-5.906c0.044-0.716,0.09-1.457,0.09-2.136V36.221c0-0.327-0.004-0.65-0.008-0.968
	c-0.015-1.133-0.028-2.204,0.14-3.238c0.184-1.127,0.585-2.258,1.192-3.361c0.259-0.469,0.547-0.875,0.827-1.269
	c0.322-0.454,0.626-0.883,0.842-1.352c0.421-0.915,0.516-2.105,0.625-3.483c0.065-0.812,0.119-1.6,0.174-2.397
	c0.131-1.909,0.267-3.883,0.507-5.684c0.08-0.604,0.18-1.271,0.281-1.955c0.091-0.609,0.184-1.232,0.266-1.837l0.086-0.612
	c0.152-1.058,0.341-2.374,0.289-3.292c-0.112-0.056-0.353-0.245-0.379-0.671c-0.03-0.464,0.15-0.878,0.323-1.279
	c0.121-0.278,0.234-0.541,0.269-0.797c0.012-0.088-0.021-0.247-0.05-0.387c-0.057-0.271-0.121-0.577-0.001-0.872
	c0.32-0.788,1.552-0.949,3.304-0.949l0.822,0.005l0.886-0.006c1.758,0,2.99,0.156,3.286,0.915c0.128,0.329,0.027,0.562-0.027,0.688
	C28,3.902,28.177,4.305,28.366,4.732c0.194,0.44,0.396,0.896,0.338,1.396c-0.049,0.424-0.233,0.602-0.421,0.707
	c-0.037,0.278,0.028,0.688,0.086,1.052c0.031,0.193,0.062,0.387,0.083,0.568l0.071,0.618c0.046,0.413,0.09,0.81,0.138,1.135
	c0.499,3.39,0.897,6.972,1.184,10.645c0.033,0.429,0.057,0.846,0.081,1.251c0.048,0.833,0.095,1.62,0.207,2.331
	c0.15,0.935,0.468,1.72,1.063,2.626l0.071,0.108c1.001,1.528,2.136,3.261,2.324,5.685c0.141,1.809,0.107,3.668,0.074,5.467
	c-0.015,0.8-0.029,1.602-0.029,2.404v19.666c0,0.388-0.005,0.772-0.01,1.151c-0.019,1.474-0.036,2.867,0.247,3.989l0.015,0.122
	l-0.021,1.13c-0.188,1.54-0.384,3.132-1.352,4.072l-0.132,0.092C29.88,72.15,26.716,72.304,24.24,72.304z M23.132,2.818
	c-2.035,0-2.341,0.279-2.382,0.334c0.004,0.021,0.037,0.178,0.059,0.282c0.045,0.219,0.097,0.466,0.062,0.725
	c-0.054,0.394-0.207,0.749-0.343,1.062c-0.132,0.305-0.257,0.594-0.243,0.818c0.117,0.072,0.355,0.259,0.379,0.677
	c0.058,1.019-0.139,2.39-0.297,3.491l-0.085,0.605c-0.083,0.609-0.177,1.236-0.268,1.849c-0.101,0.678-0.2,1.339-0.279,1.939
	c-0.236,1.769-0.371,3.727-0.501,5.62c-0.055,0.801-0.109,1.592-0.17,2.355c-0.122,1.525-0.223,2.798-0.718,3.875
	c-0.255,0.553-0.601,1.041-0.935,1.512c-0.263,0.371-0.535,0.754-0.766,1.173c-0.552,1.002-0.916,2.025-1.081,3.039
	c-0.154,0.948-0.141,1.976-0.127,3.065c0.004,0.322,0.008,0.649,0.008,0.981v26.107c0,0.71-0.047,1.466-0.092,2.197
	c-0.125,2.014-0.253,4.097,0.586,5.259c0.597,0.828,2.834,1.138,3.79,1.271c1.481,0.205,2.908,0.24,4.229,0.248l0.283,0.001
	c2.344,0,5.322-0.14,7.631-1.22c0.67-0.712,0.838-2.088,1.001-3.421l0.018-0.144l-0.003-0.803c-0.299-1.235-0.281-2.669-0.262-4.186
	c0.005-0.375,0.01-0.755,0.01-1.139V40.726c0-0.808,0.015-1.616,0.029-2.422c0.033-1.775,0.066-3.61-0.071-5.372
	c-0.167-2.168-1.182-3.717-2.163-5.214l-0.071-0.108c-0.677-1.031-1.04-1.933-1.214-3.017c-0.121-0.761-0.168-1.571-0.218-2.43
	c-0.023-0.399-0.047-0.811-0.08-1.232c-0.284-3.65-0.68-7.209-1.176-10.577c-0.049-0.335-0.095-0.744-0.143-1.169l-0.07-0.613
	c-0.02-0.169-0.048-0.348-0.077-0.528c-0.078-0.489-0.158-0.995-0.086-1.39c0.066-0.375,0.236-0.544,0.41-0.646
	c0.012-0.271-0.118-0.564-0.254-0.874c-0.217-0.493-0.488-1.106-0.368-1.802c0.02-0.111,0.051-0.198,0.078-0.262
	c-0.127-0.074-0.615-0.254-2.32-0.254l-0.886,0.006L23.132,2.818z"/>
<path d="M28.667,50.997c0,1.929-1.688,3.375-3.926,3.375c-1.171,0-2.083-0.259-2.823-0.654v0.533h-2.412v-3.615h2.223
	c0.844,0.912,1.687,1.326,3.013,1.326c0.879,0,1.515-0.397,1.515-0.965c0-0.98-1.325-1.394-2.41-1.567
	c-3.891-0.585-4.459-2.668-4.459-3.856c0-1.963,1.721-3.495,3.909-3.495c1.153,0,2.014,0.241,2.72,0.636v-0.517h2.41v3.617h-2.428
	c-0.775-0.879-1.377-1.326-2.703-1.326c-0.948,0-1.499,0.55-1.499,1.085c0,0.74,0.809,1.24,2.411,1.48
	C28.22,47.658,28.667,50.017,28.667,50.997z"/>
</svg>
