<?xml version="1.0" encoding="utf-8"?>
<!-- Generator: Adobe Illustrator 15.0.2, SVG Export Plug-In  -->
<!DOCTYPE svg PUBLIC "-//W3C//DTD SVG 1.1//EN" "http://www.w3.org/Graphics/SVG/1.1/DTD/svg11.dtd" [
	<!ENTITY ns_flows "http://ns.adobe.com/Flows/1.0/">
]>
<svg version="1.1"
	 xmlns="http://www.w3.org/2000/svg" xmlns:xlink="http://www.w3.org/1999/xlink" xmlns:a="http://ns.adobe.com/AdobeSVGViewerExtensions/3.0/"
	 x="0px" y="0px" width="54px" height="75px" viewBox="-0.0078125 -1.9941406 54 75"
	 overflow="visible" enable-background="new -0.0078125 -1.9941406 54 75" xml:space="preserve">
<defs>
</defs>
<path d="M53.7666016,67.9013672c-16.7373047-8.2402344-33.4741211,8.2402344-50.2109375,0
	C5.078125,47.090332,6.5976562,26.2797852,8.1196289,5.4697266c13.6953125,6.7426758,27.3891602-6.7431641,41.0820312,0
	C50.7241211,26.2797852,52.2470703,47.090332,53.7666016,67.9013672z"/>
<path fill="#FFFAC2" d="M50.9101562,65.0473633c-16.7368164-8.2402344-33.4736328,8.2407227-50.2099609,0
	c1.5214844-20.8100586,3.043457-41.6206055,4.5644531-62.4311523c13.6943359,6.7426758,27.3891602-6.7421875,41.081543,0
	C47.8681641,23.4267578,49.390625,44.2373047,50.9101562,65.0473633z"/>
<path d="M11.3085938,68.0961914c-3.9916992,0-7.5585938-0.800293-10.9033203-2.4477539L0,65.4492188L4.6689453,1.5766602
	L5.5605469,2.015625c2.565918,1.2631836,5.3085938,1.8779297,8.3862305,1.8779297
	c3.871582,0,7.8505859-0.9799805,11.6982422-1.9272461C29.5712891,1,33.6313477,0,37.6650391,0
	c3.2875977,0,6.2216797,0.6601562,8.9765625,2.015625l0.3452148,0.1689453l4.6762695,63.9804688l-1.0488281-0.5166016
	c-3.1567383-1.5546875-6.53125-2.3100586-10.3144531-2.3100586c-4.7509766,0-9.6235352,1.1992188-14.3359375,2.3588867
	c-4.7890625,1.1796875-9.7412109,2.3984375-14.652832,2.3989258C11.3110352,68.0961914,11.3095703,68.0961914,11.3085938,68.0961914
	z M1.4018555,64.6416016c3.0395508,1.4228516,6.2861328,2.1152344,9.9067383,2.1152344c0.0009766,0,0.0014648,0,0.0024414,0
	c4.7495117-0.0009766,9.6210938-1.2001953,14.3330078-2.359375c4.7895508-1.1787109,9.7421875-2.3984375,14.6557617-2.3984375
	c3.5795898,0,6.8173828,0.6435547,9.859375,1.9633789L45.7080078,3.0522461
	c-2.4677734-1.1518555-5.1040039-1.7128906-8.0429688-1.7128906c-3.8720703,0-7.8510742,0.9799805-11.6992188,1.9272461
	c-3.9257812,0.9658203-7.9853516,1.9658203-12.019043,1.9658203c-2.934082,0-5.5898438-0.5253906-8.0849609-1.6025391
	L1.4018555,64.6416016z"/>
<path d="M10.9746094,13.9589844c0.684082-0.2753906,1.5742188-0.2504883,2.3330078,0.0942383
	c0.7705078,0.3261719,1.3378906,0.8378906,1.8256836,1.1040039c0.487793,0.2866211,0.8554688,0.3798828,1.3378906,0.4072266
	c0.4946289,0.0092773,0.972168-0.0263672,1.3862305-0.1459961c0.8544922-0.1508789,2.2114258-1.4912109,3.800293-1.6674805
	c0.7587891-0.0981445,1.496582-0.0981445,2.2695312,0.1079102c0.762207,0.2080078,1.4555664,0.6577148,2.0307617,1.0405273
	c0.5834961,0.3950195,1.0932617,0.6098633,1.5405273,0.6665039c0.2299805,0.0239258,0.4599609,0.0385742,0.7119141,0.0151367
	l0.3989258-0.0493164c0.0844727-0.0209961,0.2021484-0.0458984,0.3037109-0.0830078
	c0.4106445-0.1464844,0.6845703-0.3608398,1.1142578-0.7905273c0.4072266-0.4165039,0.9985352-1.0620117,1.9072266-1.4975586
	c0.9091797-0.4316406,1.9160156-0.4902344,2.7480469-0.3398438c0.9345703,0.128418,1.8491211,0.6381836,2.4121094,1.2431641
	c0.5776367,0.5942383,0.8999023,1.1499023,1.2895508,1.578125c0.3813477,0.4301758,0.8969727,0.7646484,1.5742188,0.9951172
	c0.0732422,0.0258789,0.1123047,0.105957,0.0859375,0.1801758c-0.0126953,0.0419922-0.0473633,0.0732422-0.0859375,0.0878906
	c-0.6933594,0.2451172-1.5615234,0.2197266-2.3227539-0.1162109c-0.765625-0.3193359-1.3515625-0.8149414-1.8496094-1.0703125
	c-0.496582-0.2646484-0.8916016-0.3295898-1.3251953-0.3120117c-0.5292969,0.0263672-0.9365234,0.128418-1.2578125,0.3164062
	c-0.3349609,0.1704102-0.7124023,0.5361328-1.3193359,1.027832c-0.5771484,0.4916992-1.4951172,1.0522461-2.4404297,1.1738281
	c-0.2319336,0.0371094-0.4545898,0.0546875-0.7138672,0.0605469c-0.1323242,0.0048828-0.1850586-0.0058594-0.2792969-0.0073242
	c-0.1494141-0.0004883-0.2299805-0.0185547-0.3476562-0.027832c-0.4311523-0.0556641-0.8862305-0.1469727-1.3032227-0.3515625
	c-0.8676758-0.3808594-1.4262695-1.0849609-1.8354492-1.6220703c-0.4179688-0.5488281-0.7866211-1.0253906-1.3374023-1.2597656
	c-0.5239258-0.2412109-1.2075195-0.2836914-1.7905273-0.1206055c-0.5913086,0.1645508-1.0029297,0.5805664-1.3774414,1.1069336
	c-0.375,0.5175781-0.8012695,1.2060547-1.5991211,1.7128906c-0.8134766,0.5068359-1.7524414,0.6328125-2.6152344,0.5205078
	c-0.8896484-0.0805664-1.8310547-0.559082-2.4038086-1.1435547c-0.5864258-0.5820312-0.9272461-1.1225586-1.3134766-1.5458984
	c-0.3818359-0.4228516-0.8764648-0.7602539-1.5600586-1.0205078c-0.0732422-0.027832-0.109375-0.109375-0.0820312-0.1826172
	c0.015625-0.0380859,0.0439453-0.0664062,0.078125-0.0810547L10.9746094,13.9589844z"/>
<path d="M40.2773438,25.46875c-0.6982422,0.2744141-1.5927734,0.2548828-2.3666992-0.0878906
	c-0.7822266-0.3242188-1.3681641-0.8344727-1.8618164-1.1098633c-0.5-0.2836914-0.8842773-0.3886719-1.3862305-0.4135742
	c-0.5136719,0.0048828-1.0102539,0.0249023-1.4389648,0.1523438c-0.8764648,0.1582031-2.2646484,1.5004883-3.8769531,1.668457
	c-0.7685547,0.0957031-1.5131836,0.0957031-2.2978516-0.105957c-0.7744141-0.2050781-1.4829102-0.6533203-2.0717773-1.0385742
	c-0.5961914-0.3974609-1.1166992-0.6123047-1.5795898-0.6713867c-0.237793-0.0239258-0.4775391-0.0395508-0.737793-0.0161133
	l-0.4116211,0.0488281c-0.0878906,0.0209961-0.2104492,0.046875-0.3183594,0.0839844
	C21.5,24.1269531,21.2104492,24.3457031,20.7714844,24.7783203c-0.4238281,0.4189453-1.0332031,1.0688477-1.9511719,1.4980469
	c-0.921875,0.4238281-1.9306641,0.4794922-2.7700195,0.3305664c-0.9404297-0.1274414-1.8676758-0.6269531-2.4467773-1.234375
	c-0.5952148-0.5942383-0.9301758-1.1547852-1.3354492-1.5854492c-0.3974609-0.4326172-0.9311523-0.7666016-1.6186523-0.996582
	c-0.0737305-0.0253906-0.1142578-0.1049805-0.0893555-0.1796875c0.0146484-0.0419922,0.0498047-0.074707,0.0893555-0.0883789
	c0.7045898-0.2446289,1.5791016-0.2236328,2.3535156,0.109375c0.7792969,0.315918,1.3813477,0.8149414,1.8901367,1.0722656
	c0.5087891,0.2646484,0.9194336,0.3339844,1.3730469,0.315918c0.5439453-0.0249023,0.9726562-0.128418,1.3105469-0.3193359
	c0.3515625-0.1748047,0.7358398-0.5415039,1.3588867-1.0351562c0.59375-0.4956055,1.5273438-1.0473633,2.4775391-1.1645508
	c0.2333984-0.0371094,0.4580078-0.0537109,0.7182617-0.059082c0.1323242-0.0039062,0.1860352,0.0053711,0.2836914,0.0073242
	c0.1479492,0.0004883,0.2304688,0.019043,0.3481445,0.027832c0.4365234,0.0551758,0.8945312,0.1459961,1.3168945,0.347168
	c0.8759766,0.3759766,1.4550781,1.0795898,1.8808594,1.621582c0.4311523,0.5522461,0.8139648,1.0297852,1.3808594,1.2651367
	c0.5385742,0.2412109,1.2363281,0.2836914,1.8330078,0.1196289c0.6015625-0.1772461,1.0385742-0.5717773,1.4228516-1.1098633
	c0.3896484-0.5195312,0.8334961-1.2158203,1.6474609-1.7148438c0.8266602-0.4946289,1.7685547-0.6352539,2.6391602-0.5102539
	c0.8916016,0.0820312,1.847168,0.5429688,2.4331055,1.1323242c0.6113281,0.5761719,0.9599609,1.1269531,1.3618164,1.5512695
	c0.3950195,0.4257812,0.9106445,0.7607422,1.605957,1.0209961c0.0732422,0.0273438,0.1098633,0.109375,0.081543,0.1816406
	c-0.0136719,0.0395508-0.0449219,0.0678711-0.0786133,0.0820312L40.2773438,25.46875z"/>
<path d="M10.3300781,31.0839844c0.7089844-0.2744141,1.6108398-0.2587891,2.3984375,0.0805664
	c0.7949219,0.3217773,1.3964844,0.8359375,1.9013672,1.112793c0.5126953,0.284668,0.9155273,0.3925781,1.4335938,0.4179688
	c0.527832-0.0043945,1.0463867-0.0258789,1.4902344-0.1542969c0.9003906-0.1621094,2.3203125-1.5092773,3.953125-1.6679688
	c0.7788086-0.0942383,1.5351562-0.0942383,2.3300781,0.1044922c0.7832031,0.2011719,1.5087891,0.6479492,2.1108398,1.0361328
	c0.609375,0.3989258,1.1401367,0.6137695,1.6201172,0.6748047c0.2475586,0.0244141,0.4936523,0.0415039,0.7612305,0.0170898
	l0.4243164-0.0488281c0.0947266-0.0205078,0.2197266-0.0463867,0.3320312-0.0834961
	c0.4501953-0.1513672,0.7529297-0.3720703,1.206543-0.8076172c0.4335938-0.421875,1.0634766-1.0751953,1.9921875-1.4985352
	c0.9345703-0.4165039,1.9458008-0.4692383,2.7944336-0.3222656c0.9458008,0.1259766,1.8828125,0.6166992,2.4790039,1.2250977
	c0.6123047,0.5966797,0.9599609,1.1621094,1.3808594,1.5947266c0.4130859,0.4345703,0.965332,0.7675781,1.6655273,0.9975586
	c0.0737305,0.0239258,0.1137695,0.1040039,0.0893555,0.1772461c-0.0126953,0.0444336-0.0493164,0.0766602-0.0893555,0.090332
	c-0.7158203,0.2441406-1.5981445,0.2280273-2.3876953-0.1015625c-0.7919922-0.3149414-1.4072266-0.8173828-1.9272461-1.074707
	c-0.5205078-0.2666016-0.9472656-0.3383789-1.4208984-0.3212891c-0.5595703,0.0253906-1.0087891,0.128418-1.3647461,0.3237305
	c-0.3666992,0.1772461-0.7617188,0.5463867-1.3989258,1.0424805c-0.6103516,0.4985352-1.5595703,1.0419922-2.5141602,1.1552734
	c-0.2348633,0.0356445-0.4628906,0.0522461-0.722168,0.0566406c-0.1323242,0.0039062-0.1904297-0.0048828-0.2880859-0.0073242
	c-0.1489258-0.0004883-0.2319336-0.019043-0.3525391-0.0283203c-0.4384766-0.0541992-0.8989258-0.144043-1.328125-0.3432617
	c-0.8837891-0.3691406-1.4853516-1.0742188-1.9223633-1.6191406c-0.4472656-0.5566406-0.8461914-1.0366211-1.4267578-1.2714844
	c-0.5556641-0.2407227-1.2646484-0.2832031-1.875-0.1201172c-0.6162109,0.1772461-1.0703125,0.5732422-1.46875,1.1152344
	c-0.4042969,0.5229492-0.8657227,1.2231445-1.6948242,1.7167969c-0.8388672,0.4907227-1.7841797,0.6274414-2.6630859,0.5039062
	c-0.8994141-0.0805664-1.8618164-0.5317383-2.46875-1.1220703c-0.625-0.5776367-0.9873047-1.1337891-1.4047852-1.5600586
	c-0.4130859-0.4282227-0.9438477-0.7626953-1.652832-1.0224609c-0.0737305-0.0273438-0.1098633-0.1079102-0.0839844-0.1816406
	c0.015625-0.0390625,0.0444336-0.0683594,0.0810547-0.0830078L10.3300781,31.0839844z"/>
<path d="M40.9213867,42.590332c-0.7192383,0.2734375-1.6298828,0.2626953-2.4301758-0.0732422
	c-0.8085938-0.3193359-1.4228516-0.8369141-1.9438477-1.1142578c-0.5229492-0.2866211-0.940918-0.3979492-1.4775391-0.4223633
	c-0.5439453,0.0024414-1.0805664,0.0244141-1.5405273,0.1557617c-0.9228516,0.1645508-2.375,1.5166016-4.0283203,1.6660156
	c-0.7895508,0.0927734-1.5566406,0.0927734-2.3623047-0.1035156c-0.793457-0.1972656-1.5366211-0.6430664-2.1508789-1.0332031
	c-0.6210938-0.4013672-1.1625977-0.6157227-1.659668-0.6787109c-0.2553711-0.0249023-0.5117188-0.0419922-0.7861328-0.0180664
	l-0.4370117,0.0483398c-0.0991211,0.0224609-0.2290039,0.0488281-0.3447266,0.0849609
	c-0.4702148,0.1518555-0.7875977,0.3764648-1.253418,0.8149414c-0.4467773,0.4248047-1.0957031,1.0810547-2.0371094,1.4970703
	c-0.9443359,0.4121094-1.9589844,0.4619141-2.8144531,0.3154297c-0.9521484-0.1245117-1.8984375-0.6054688-2.5151367-1.2167969
	c-0.6289062-0.5957031-0.9897461-1.1674805-1.4262695-1.6000977c-0.4291992-0.4379883-0.9970703-0.7705078-1.7094727-1.0009766
	c-0.0742188-0.0229492-0.1137695-0.1030273-0.090332-0.1762695c0.0126953-0.0444336,0.0493164-0.0766602,0.090332-0.090332
	c0.7285156-0.2431641,1.6171875-0.230957,2.4189453,0.0952148c0.8071289,0.3115234,1.4379883,0.8178711,1.96875,1.0766602
	c0.5307617,0.2666016,0.9755859,0.3422852,1.4667969,0.3256836c0.5756836-0.0249023,1.0449219-0.1293945,1.4165039-0.3266602
	c0.3847656-0.1816406,0.7890625-0.5522461,1.4423828-1.050293c0.6230469-0.5009766,1.5893555-1.0375977,2.550293-1.1474609
	c0.2353516-0.0336914,0.4658203-0.0498047,0.7255859-0.0546875c0.1323242-0.0039062,0.1923828,0.0068359,0.2919922,0.0083008
	c0.1494141,0.0009766,0.234375,0.0175781,0.3530273,0.0273438c0.4448242,0.0546875,0.9077148,0.1435547,1.3417969,0.340332
	c0.8950195,0.3642578,1.5146484,1.0678711,1.9672852,1.6171875c0.4614258,0.5595703,0.8745117,1.0424805,1.4711914,1.277832
	c0.5712891,0.2392578,1.2924805,0.2827148,1.9174805,0.1201172c0.6308594-0.1777344,1.1015625-0.5737305,1.5141602-1.1191406
	c0.4160156-0.5273438,0.8979492-1.2324219,1.7402344-1.7211914c0.8525391-0.4838867,1.7988281-0.6186523,2.6879883-0.4975586
	c0.9052734,0.0800781,1.8789062,0.5234375,2.5039062,1.1157227c0.6401367,0.578125,1.0170898,1.1381836,1.4487305,1.5668945
	c0.4287109,0.4291992,0.9780273,0.7641602,1.6972656,1.0244141c0.0732422,0.0258789,0.1123047,0.1069336,0.0859375,0.1787109
	c-0.015625,0.0410156-0.0458984,0.0708008-0.0830078,0.0839844L40.9213867,42.590332z"/>
<path d="M9.6865234,47.4946289c0.7324219-0.2734375,1.6503906-0.265625,2.4638672,0.0678711
	c0.8227539,0.3164062,1.4521484,0.8374023,1.9829102,1.1157227c0.5332031,0.2875977,0.9711914,0.4008789,1.5244141,0.4262695
	c0.5600586-0.0024414,1.1142578-0.0253906,1.590332-0.1586914c0.4970703-0.1147461,1.0751953-0.4418945,1.7734375-0.8388672
	c0.6904297-0.394043,1.5209961-0.7490234,2.3305664-0.8256836c0.800293-0.0913086,1.5766602-0.0913086,2.3945312,0.1020508
	c0.8051758,0.1948242,1.5625,0.6396484,2.1904297,1.0302734c0.6342773,0.4042969,1.1860352,0.6191406,1.7001953,0.6831055
	c0.2612305,0.0244141,0.5273438,0.0429688,0.8105469,0.0195312l0.449707-0.0483398
	c0.1049805-0.0219727,0.2353516-0.0483398,0.3579102-0.0864258c0.4863281-0.1533203,0.8212891-0.3818359,1.296875-0.8212891
	c0.4609375-0.4291992,1.1298828-1.0864258,2.0825195-1.4970703c0.9545898-0.4052734,1.972168-0.4526367,2.8383789-0.309082
	c0.956543,0.1240234,1.9145508,0.5966797,2.5478516,1.2084961c0.6455078,0.5976562,1.0195312,1.1733398,1.472168,1.6103516
	c0.4443359,0.4389648,1.0302734,0.7695312,1.7548828,0.9995117c0.0732422,0.0244141,0.1152344,0.1025391,0.0913086,0.1772461
	c-0.015625,0.0444336-0.0527344,0.0771484-0.0913086,0.0898438c-0.7402344,0.2431641-1.637207,0.2338867-2.453125-0.0883789
	c-0.8193359-0.3105469-1.4628906-0.8193359-2.0087891-1.0795898c-0.5419922-0.2675781-1.0019531-0.3466797-1.512207-0.3291016
	c-0.5913086,0.0244141-1.0795898,0.1293945-1.4702148,0.3291016c-0.4003906,0.1860352-0.8129883,0.5585938-1.4829102,1.0585938
	c-0.6386719,0.5029297-1.6191406,1.0317383-2.5844727,1.137207c-0.2373047,0.034668-0.4702148,0.0498047-0.7319336,0.0537109
	c-0.1303711,0.0029297-0.1962891-0.0053711-0.2958984-0.0073242c-0.1479492-0.0019531-0.2353516-0.0185547-0.3549805-0.0273438
	c-0.4482422-0.0537109-0.9165039-0.1420898-1.3549805-0.3364258c-0.9042969-0.3598633-1.5439453-1.0644531-2.0107422-1.6181641
	c-0.4760742-0.5620117-0.9038086-1.0458984-1.5141602-1.2807617c-0.5878906-0.2397461-1.3212891-0.2827148-1.9609375-0.1210938
	c-0.6445312,0.1767578-1.1308594,0.5742188-1.5585938,1.1235352c-0.4316406,0.5292969-0.9311523,1.2382812-1.7851562,1.7236328
	c-0.8642578,0.4785156-1.8178711,0.6108398-2.715332,0.4902344c-0.9125977-0.078125-1.8959961-0.5126953-2.5371094-1.105957
	c-0.6586914-0.5786133-1.0458984-1.1445312-1.4941406-1.5732422c-0.4453125-0.4335938-1.0102539-0.7661133-1.7436523-1.0268555
	c-0.0732422-0.0258789-0.1098633-0.105957-0.0839844-0.1791992c0.0131836-0.0400391,0.0444336-0.0708008,0.0810547-0.0854492
	L9.6865234,47.4946289z"/>
<g>
	<path fill="#BCBEC0" d="M37.7163086,1.8574219c2.7626953,0,5.2407227,0.5053711,7.565918,1.5444336l4.3706055,59.8066406
		c-2.8862305-1.137207-5.9379883-1.6914062-9.3017578-1.6914062c-4.9707031,0-9.949707,1.2255859-14.784668,2.4150391
		c-4.6796875,1.1513672-9.5185547,2.3417969-14.206543,2.3427734c-3.4267578,0-6.5-0.6298828-9.3828125-1.9248047
		L6.3613281,4.3725586c2.3710938,0.9267578,4.8769531,1.3779297,7.6367188,1.3779297
		c4.0893555,0,8.1738281-1.0048828,12.1445312-1.9819336C29.9599609,2.8291016,33.9067383,1.8574219,37.7163086,1.8574219
		 M37.7163086,1.3574219c-3.8720703,0-7.8510742,0.9799805-11.6992188,1.9272461
		c-3.9257812,0.9658203-7.9853516,1.9658203-12.019043,1.9658203c-2.934082,0-5.5898438-0.5253906-8.0849609-1.6025391
		L1.453125,64.659668c3.0395508,1.4228516,6.2861328,2.1152344,9.9067383,2.1152344h0.0024414
		c4.7495117-0.0009766,9.6210938-1.2001953,14.3330078-2.359375c4.7895508-1.1787109,9.7421875-2.3984375,14.6557617-2.3984375
		c3.5795898,0,6.8173828,0.6435547,9.859375,1.9633789L45.7592773,3.0703125
		C43.2915039,1.918457,40.6552734,1.3574219,37.7163086,1.3574219L37.7163086,1.3574219z"/>
</g>
</svg>
